<svg xmlns="http://www.w3.org/2000/svg" width="339" height="168" alt="Skills Assessments Quizzes" viewBox="640 142 619 348"><path id="path_728f20a7-3dfd-4b67-3bfa-a60dec153c50" fill="#e91e63" stroke="transparent" stroke-linecap="round" stroke-linejoin="round" stroke-width="0" d="M 65.04,5.57 Q 65.04,5.57 60.46,6.41 55.88,7.26 48.01,9.33 40.15,11.40 33.16,14.62 26.17,17.84 32.56,23.32 38.95,28.79 46.69,30.05 54.43,31.31 61.87,32.40 69.31,33.49 73.90,42.22 78.49,50.94 73.00,57.48 67.50,64.03 58.50,66.93 49.50,69.84 40.45,70.31 31.40,70.78 23.49,70.51 15.57,70.25 6.04,67.65 -3.48,65.06 -4.68,64.29 -5.87,63.52 -6.76,62.41 -7.65,61.30 -8.14,59.97 -8.63,58.63 -8.66,57.21 -8.70,55.79 -8.28,54.44 -7.86,53.08 -7.03,51.92 -6.20,50.77 -5.04,49.94 -3.88,49.12 -2.52,48.70 -1.16,48.29 0.25,48.33 1.67,48.37 3.00,48.86 4.33,49.36 5.44,50.25 6.54,51.14 7.31,52.34 8.07,53.54 8.41,54.92 8.75,56.30 8.63,57.71 8.52,59.13 7.95,60.44 7.39,61.74 6.44,62.80 5.49,63.85 4.25,64.55 3.01,65.25 1.61,65.51 0.22,65.78 -1.18,65.58 -2.59,65.39 -3.86,64.75 -5.13,64.12 -6.14,63.11 -7.14,62.11 -7.77,60.83 -8.40,59.56 -8.59,58.15 -8.78,56.74 -8.51,55.34 -8.23,53.95 -7.53,52.71 -6.83,51.48 -5.77,50.53 -4.71,49.58 -3.40,49.02 -2.10,48.47 -0.68,48.35 0.73,48.24 2.10,48.59 3.48,48.93 3.48,48.93 3.48,48.93 8.93,50.92 14.37,52.90 22.53,53.47 30.70,54.04 38.99,53.48 47.29,52.92 55.01,50.20 62.73,47.48 55.18,46.53 47.62,45.59 40.25,43.63 32.88,41.68 25.68,37.09 18.48,32.50 14.56,26.19 10.63,19.88 15.29,13.54 19.94,7.20 28.60,3.75 37.25,0.31 45.53,-1.75 53.80,-3.82 58.38,-4.70 62.95,-5.57 63.63,-5.62 64.31,-5.66 64.99,-5.54 65.66,-5.42 66.29,-5.14 66.91,-4.86 67.45,-4.44 67.99,-4.02 68.41,-3.49 68.84,-2.95 69.12,-2.33 69.40,-1.70 69.53,-1.03 69.66,-0.36 69.62,0.31 69.58,1.00 69.38,1.65 69.18,2.30 68.83,2.89 68.48,3.48 67.99,3.96 67.51,4.45 66.93,4.80 66.34,5.16 65.69,5.37 65.04,5.57 65.04,5.57 Z" pointer-events="all" transform="translate(703, 206)"/><path id="path_84a9f9f8-44b0-42d6-0eef-41ef9d949498" fill="#e91e63" stroke="transparent" stroke-linecap="round" stroke-linejoin="round" stroke-width="0" d="M 8.60,0.29 Q 8.60,0.29 8.23,5.72 7.85,11.15 7.32,19.50 6.78,27.84 6.63,36.40 6.48,44.96 6.59,53.09 6.71,61.22 6.50,62.28 6.29,63.35 5.75,64.29 5.21,65.24 4.40,65.96 3.58,66.68 2.58,67.10 1.58,67.53 0.49,67.61 -0.58,67.69 -1.63,67.42 -2.69,67.15 -3.60,66.56 -4.51,65.97 -5.19,65.12 -5.87,64.27 -6.23,63.24 -6.60,62.22 -6.63,61.13 -6.65,60.05 -6.32,59.01 -6.00,57.97 -5.36,57.09 -4.72,56.21 -3.83,55.58 -2.94,54.96 -1.90,54.64 -0.86,54.33 0.21,54.37 1.30,54.40 2.32,54.78 3.34,55.16 4.18,55.85 5.03,56.54 5.61,57.46 6.19,58.38 6.44,59.43 6.70,60.49 6.60,61.57 6.51,62.66 6.07,63.65 5.64,64.65 4.90,65.45 4.17,66.26 3.22,66.79 2.27,67.32 1.20,67.52 0.14,67.71 -0.93,67.56 -2.01,67.41 -2.98,66.92 -3.95,66.43 -4.71,65.66 -5.48,64.88 -5.96,63.91 -6.43,62.93 -6.57,61.85 -6.71,60.77 -6.71,60.77 -6.71,60.77 -6.14,52.66 -5.57,44.55 -4.94,35.83 -4.31,27.10 -3.65,18.84 -3.00,10.58 -2.80,5.14 -2.60,-0.29 -2.49,-0.96 -2.37,-1.62 -2.10,-2.24 -1.82,-2.86 -1.41,-3.40 -1.00,-3.93 -0.47,-4.36 0.05,-4.78 0.67,-5.06 1.28,-5.34 1.95,-5.47 2.61,-5.60 3.29,-5.56 3.96,-5.53 4.61,-5.33 5.26,-5.13 5.84,-4.79 6.42,-4.44 6.91,-3.97 7.39,-3.49 7.74,-2.92 8.10,-2.34 8.30,-1.69 8.51,-1.05 8.56,-0.37 8.60,0.29 8.60,0.29 Z" pointer-events="all" transform="translate(789, 204)"/><path id="path_23d84f49-b41d-468e-1b02-ca6d3a5e39ce" fill="#e91e63" stroke="transparent" stroke-linecap="round" stroke-linejoin="round" stroke-width="0" d="M -2.56,21.87 Q -2.56,21.87 0.55,20.24 3.67,18.62 11.39,14.21 19.11,9.80 25.83,5.15 32.54,0.50 37.36,-2.52 42.18,-5.54 43.17,-6.00 44.15,-6.47 45.24,-6.59 46.32,-6.72 47.38,-6.49 48.45,-6.26 49.38,-5.71 50.32,-5.15 51.03,-4.32 51.74,-3.50 52.15,-2.49 52.56,-1.48 52.62,-0.40 52.69,0.68 52.40,1.73 52.12,2.78 51.51,3.69 50.91,4.59 50.05,5.26 49.18,5.92 48.15,6.27 47.12,6.63 46.04,6.63 44.95,6.64 43.91,6.30 42.88,5.96 42.01,5.31 41.14,4.65 40.52,3.75 39.91,2.86 39.61,1.81 39.31,0.76 39.36,-0.31 39.42,-1.40 39.81,-2.42 40.21,-3.43 40.91,-4.26 41.61,-5.10 42.54,-5.66 43.47,-6.23 44.53,-6.47 45.59,-6.71 46.67,-6.60 47.76,-6.49 48.75,-6.04 49.74,-5.59 50.53,-4.84 51.33,-4.10 51.84,-3.14 52.36,-2.18 52.54,-1.11 52.72,-0.04 52.55,1.03 52.38,2.11 51.88,3.07 51.38,4.03 50.59,4.79 49.80,5.54 49.80,5.54 49.81,5.54 42.86,10.39 35.92,15.23 29.18,18.91 22.45,22.58 15.68,25.83 8.90,29.08 5.73,30.60 2.56,32.12 1.91,32.35 1.26,32.59 0.57,32.66 -0.11,32.73 -0.79,32.63 -1.48,32.53 -2.12,32.27 -2.76,32.02 -3.32,31.61 -3.88,31.21 -4.33,30.68 -4.78,30.16 -5.08,29.54 -5.39,28.92 -5.55,28.25 -5.70,27.57 -5.68,26.88 -5.67,26.19 -5.49,25.52 -5.31,24.86 -4.98,24.25 -4.65,23.65 -4.18,23.14 -3.71,22.63 -3.13,22.25 -2.56,21.87 -2.56,21.87 Z" pointer-events="all" transform="translate(791, 200)"/><path id="path_b10c493d-ce53-4c73-1163-1b5512410e91" fill="#e91e63" stroke="transparent" stroke-linecap="round" stroke-linejoin="round" stroke-width="0" d="M 5.32,-2.02 Q 5.32,-2.02 6.90,2.12 8.47,6.27 12.57,15.74 16.68,25.20 20.75,31.62 24.81,38.04 27.05,40.81 29.30,43.58 29.86,44.54 30.43,45.50 30.66,46.59 30.89,47.69 30.76,48.79 30.63,49.90 30.15,50.91 29.67,51.92 28.90,52.72 28.12,53.53 27.13,54.04 26.14,54.55 25.03,54.72 23.93,54.90 22.83,54.70 21.73,54.51 20.75,53.98 19.77,53.45 19.01,52.63 18.25,51.81 17.79,50.80 17.33,49.78 17.22,48.67 17.11,47.56 17.36,46.47 17.61,45.38 18.19,44.43 18.78,43.48 19.64,42.76 20.49,42.05 21.53,41.65 22.57,41.24 23.69,41.19 24.81,41.14 25.88,41.45 26.95,41.76 27.87,42.39 28.79,43.03 29.45,43.93 30.12,44.82 30.47,45.88 30.81,46.94 30.80,48.06 30.79,49.18 30.43,50.23 30.06,51.28 29.38,52.17 28.69,53.05 27.76,53.67 26.83,54.29 25.75,54.57 24.68,54.86 23.56,54.79 22.45,54.72 21.41,54.30 20.38,53.87 19.54,53.14 18.69,52.41 18.69,52.41 18.69,52.41 14.69,46.58 10.68,40.75 7.09,32.71 3.49,24.67 0.65,17.49 -2.18,10.31 -3.75,6.16 -5.32,2.02 -5.49,1.35 -5.65,0.68 -5.65,0.00 -5.65,-0.68 -5.49,-1.35 -5.32,-2.02 -5.00,-2.62 -4.68,-3.23 -4.23,-3.75 -3.77,-4.26 -3.21,-4.65 -2.64,-5.04 -2.00,-5.28 -1.36,-5.53 -0.68,-5.61 0.00,-5.69 0.68,-5.61 1.36,-5.53 2.00,-5.28 2.64,-5.04 3.21,-4.65 3.77,-4.26 4.23,-3.75 4.68,-3.23 5.00,-2.62 5.32,-2.02 5.32,-2.02 Z" pointer-events="all" transform="translate(809, 222)"/><path id="path_371946d2-1dc5-49b6-06cc-ea55ec2f496e" fill="#e91e63" stroke="transparent" stroke-linecap="round" stroke-linejoin="round" stroke-width="0" d="M 5.69,-0.19 Q 5.69,-0.19 5.85,3.95 6.01,8.09 6.27,15.64 6.53,23.18 7.55,31.88 8.57,40.58 9.09,45.50 9.60,50.43 9.51,51.50 9.43,52.57 9.01,53.55 8.59,54.54 7.88,55.34 7.17,56.14 6.24,56.67 5.31,57.21 4.25,57.41 3.20,57.62 2.14,57.48 1.08,57.34 0.11,56.86 -0.84,56.39 -1.60,55.64 -2.36,54.88 -2.84,53.92 -3.32,52.97 -3.47,51.90 -3.62,50.84 -3.42,49.79 -3.22,48.74 -2.70,47.80 -2.18,46.86 -1.38,46.15 -0.59,45.43 0.39,45.00 1.37,44.57 2.44,44.48 3.51,44.39 4.55,44.64 5.59,44.90 6.49,45.47 7.40,46.05 8.07,46.88 8.75,47.71 9.12,48.72 9.50,49.72 9.53,50.79 9.56,51.86 9.25,52.89 8.94,53.92 8.32,54.79 7.70,55.66 6.83,56.29 5.96,56.92 4.94,57.24 3.92,57.56 2.84,57.53 1.77,57.51 0.76,57.14 -0.23,56.78 -1.07,56.11 -1.91,55.44 -2.49,54.54 -3.07,53.64 -3.33,52.60 -3.60,51.56 -3.60,51.56 -3.60,51.56 -4.05,45.28 -4.50,39.00 -4.88,31.21 -5.26,23.42 -5.35,15.95 -5.44,8.49 -5.56,4.34 -5.69,0.19 -5.63,-0.48 -5.57,-1.17 -5.35,-1.82 -5.13,-2.47 -4.76,-3.04 -4.38,-3.62 -3.89,-4.09 -3.39,-4.57 -2.79,-4.91 -2.20,-5.25 -1.54,-5.43 -0.88,-5.62 -0.19,-5.64 0.49,-5.67 1.16,-5.53 1.83,-5.39 2.45,-5.09 3.07,-4.79 3.60,-4.35 4.12,-3.92 4.53,-3.36 4.94,-2.81 5.21,-2.18 5.47,-1.55 5.58,-0.87 5.69,-0.19 5.69,-0.19 Z" pointer-events="all" transform="translate(851, 216)"/><path id="path_c1fceace-a6f4-4868-0f77-540b4fcefea4" fill="#e91e63" stroke="transparent" stroke-linecap="round" stroke-linejoin="round" stroke-width="0" d="M 13.58,0.47 Q 13.58,0.47 13.10,5.47 12.63,10.48 12.16,18.85 11.69,27.22 11.01,34.92 10.33,42.62 9.57,50.29 8.81,57.96 16.92,58.03 25.03,58.11 31.43,58.20 37.83,58.29 39.04,58.62 40.25,58.96 41.29,59.66 42.33,60.37 43.09,61.37 43.84,62.36 44.24,63.55 44.65,64.74 44.65,65.99 44.65,67.25 44.24,68.44 43.84,69.63 43.09,70.62 42.33,71.62 41.29,72.33 40.25,73.03 39.04,73.37 37.83,73.70 36.58,73.63 35.33,73.57 34.16,73.10 33.00,72.64 32.04,71.83 31.09,71.01 30.44,69.94 29.79,68.86 29.52,67.64 29.25,66.41 29.39,65.17 29.53,63.92 30.05,62.78 30.58,61.64 31.44,60.73 32.30,59.82 33.41,59.24 34.52,58.65 35.76,58.45 37.00,58.24 38.23,58.45 39.47,58.65 40.58,59.24 41.69,59.82 42.55,60.73 43.41,61.65 43.94,62.78 44.47,63.92 44.60,65.17 44.74,66.42 44.47,67.64 44.20,68.87 43.55,69.94 42.90,71.02 41.95,71.83 40.99,72.64 39.83,73.10 38.66,73.57 37.41,73.63 36.15,73.70 36.16,73.70 36.16,73.70 33.53,73.31 30.89,72.91 23.34,73.97 15.79,75.04 7.88,74.88 -0.03,74.73 -2.17,66.67 -4.32,58.61 -2.75,50.11 -1.18,41.60 -0.34,34.10 0.49,26.61 1.07,18.07 1.65,9.53 2.03,4.53 2.41,-0.47 2.55,-1.13 2.69,-1.79 2.98,-2.40 3.28,-3.01 3.71,-3.53 4.14,-4.05 4.68,-4.46 5.22,-4.86 5.84,-5.12 6.46,-5.38 7.13,-5.49 7.80,-5.59 8.47,-5.53 9.14,-5.48 9.78,-5.26 10.42,-5.04 10.99,-4.68 11.56,-4.32 12.02,-3.83 12.49,-3.34 12.82,-2.75 13.16,-2.16 13.34,-1.51 13.53,-0.87 13.55,-0.19 13.58,0.47 13.58,0.47 Z" pointer-events="all" transform="translate(876, 197)"/><path id="path_22135d90-fc69-4ff2-2cc2-e9c7927950ad" fill="#e91e63" stroke="transparent" stroke-linecap="round" stroke-linejoin="round" stroke-width="0" d="M 8.78,0.20 Q 8.78,0.20 8.66,4.21 8.55,8.21 8.52,17.10 8.50,25.99 8.02,35.00 7.55,44.01 7.55,51.61 7.55,59.22 15.93,58.42 24.30,57.63 29.58,57.44 34.85,57.25 36.25,57.45 37.65,57.66 38.92,58.30 40.18,58.95 41.17,59.96 42.16,60.97 42.77,62.24 43.39,63.52 43.56,64.92 43.74,66.33 43.45,67.72 43.17,69.10 42.46,70.33 41.75,71.55 40.69,72.48 39.62,73.42 38.32,73.96 37.01,74.51 35.60,74.61 34.19,74.71 32.82,74.35 31.45,73.99 30.27,73.22 29.08,72.44 28.21,71.33 27.33,70.22 26.86,68.88 26.39,67.55 26.36,66.13 26.34,64.72 26.77,63.37 27.20,62.02 28.04,60.88 28.88,59.74 30.04,58.93 31.20,58.11 32.55,57.71 33.91,57.31 35.33,57.37 36.74,57.42 38.06,57.93 39.39,58.43 40.48,59.33 41.57,60.23 42.32,61.43 43.07,62.63 43.40,64.01 43.72,65.38 43.59,66.79 43.46,68.20 42.89,69.50 42.31,70.79 41.36,71.83 40.40,72.87 39.16,73.56 37.92,74.24 36.53,74.49 35.13,74.74 35.13,74.74 35.14,74.74 31.94,74.78 28.75,74.81 20.97,75.20 13.19,75.58 5.64,75.45 -1.89,75.33 -4.65,67.16 -7.40,58.99 -6.68,50.87 -5.96,42.76 -4.97,34.26 -3.98,25.76 -3.55,16.78 -3.12,7.79 -2.95,3.79 -2.78,-0.20 -2.67,-0.89 -2.56,-1.58 -2.29,-2.22 -2.02,-2.87 -1.60,-3.43 -1.19,-3.99 -0.65,-4.43 -0.11,-4.87 0.51,-5.18 1.14,-5.48 1.82,-5.62 2.50,-5.76 3.20,-5.74 3.90,-5.71 4.57,-5.52 5.24,-5.33 5.85,-4.98 6.45,-4.64 6.96,-4.16 7.46,-3.68 7.84,-3.09 8.21,-2.50 8.44,-1.84 8.66,-1.18 8.72,-0.48 8.78,0.20 8.78,0.20 Z" pointer-events="all" transform="translate(932, 192)"/><path id="path_3bd8f7c5-8a0b-476e-05f0-64f32a6f7d81" fill="#00bcd4" stroke="transparent" stroke-linecap="round" stroke-linejoin="round" stroke-width="0" d="M -4.35,39.15 Q -4.35,39.15 -2.25,36.68 -0.16,34.21 5.02,27.71 10.21,21.22 15.82,14.22 21.43,7.22 28.41,1.84 35.40,-3.53 40.85,3.90 46.30,11.34 47.83,18.91 49.36,26.48 52.33,33.59 55.30,40.71 56.67,44.05 58.05,47.38 58.25,48.74 58.46,50.09 58.22,51.44 57.99,52.79 57.33,53.99 56.68,55.19 55.67,56.12 54.67,57.05 53.42,57.62 52.17,58.18 50.80,58.31 49.44,58.44 48.11,58.13 46.77,57.82 45.61,57.10 44.44,56.38 43.57,55.33 42.69,54.28 42.20,53.00 41.71,51.72 41.65,50.35 41.59,48.98 41.97,47.67 42.35,46.35 43.14,45.23 43.92,44.10 45.02,43.29 46.12,42.47 47.42,42.05 48.72,41.63 50.09,41.64 51.46,41.66 52.75,42.11 54.05,42.56 55.13,43.40 56.21,44.24 56.96,45.39 57.72,46.53 58.07,47.85 58.42,49.18 58.33,50.54 58.24,51.91 57.72,53.18 57.20,54.44 56.30,55.48 55.40,56.51 54.22,57.20 53.04,57.89 51.70,58.17 50.36,58.45 49.00,58.29 47.64,58.12 46.40,57.53 45.16,56.95 44.18,55.99 43.20,55.04 42.57,53.82 41.94,52.60 41.94,52.61 41.94,52.61 41.65,51.35 41.35,50.10 38.30,42.51 35.26,34.92 33.53,25.78 31.80,16.63 25.84,23.04 19.88,29.45 14.31,35.75 8.74,42.06 6.54,44.45 4.35,46.84 3.83,47.30 3.30,47.77 2.68,48.09 2.06,48.42 1.39,48.59 0.71,48.76 0.01,48.76 -0.68,48.76 -1.36,48.59 -2.04,48.43 -2.66,48.10 -3.28,47.78 -3.81,47.32 -4.33,46.85 -4.73,46.28 -5.13,45.70 -5.38,45.05 -5.63,44.40 -5.72,43.70 -5.80,43.01 -5.72,42.31 -5.63,41.62 -5.39,40.96 -5.14,40.31 -4.74,39.73 -4.35,39.15 -4.35,39.15 Z" pointer-events="all" transform="translate(680, 291)"/><path id="path_49198623-ab6f-4acb-32bc-8bda7b6d5289" fill="#00bcd4" stroke="transparent" stroke-linecap="round" stroke-linejoin="round" stroke-width="0" d="M 0,-5.05 Q 0,-5.05 3.28,-5.14 6.57,-5.23 18.28,-5.16 30,-5.08 30.81,-4.94 31.62,-4.81 32.34,-4.43 33.07,-4.04 33.64,-3.44 34.20,-2.85 34.55,-2.10 34.89,-1.35 34.98,-0.54 35.07,0.27 34.89,1.07 34.72,1.88 34.29,2.58 33.87,3.29 33.24,3.82 32.61,4.35 31.85,4.65 31.09,4.96 30.27,5.00 29.45,5.05 28.65,4.83 27.86,4.61 27.18,4.15 26.50,3.68 26.00,3.03 25.50,2.37 25.24,1.60 24.98,0.82 24.98,-0.00 24.98,-0.82 25.24,-1.60 25.51,-2.38 26.00,-3.03 26.50,-3.68 27.18,-4.15 27.86,-4.61 28.65,-4.83 29.45,-5.05 30.27,-5.00 31.09,-4.96 31.85,-4.65 32.62,-4.35 33.24,-3.82 33.87,-3.28 34.29,-2.58 34.72,-1.87 34.89,-1.07 35.07,-0.27 34.98,0.54 34.89,1.36 34.55,2.10 34.20,2.85 33.63,3.44 33.07,4.04 32.34,4.43 31.62,4.81 30.80,4.94 29.99,5.08 29.99,5.08 30,5.08 18.28,5.16 6.57,5.23 3.28,5.14 0,5.05 -0.60,4.98 -1.21,4.90 -1.78,4.69 -2.35,4.47 -2.85,4.13 -3.35,3.78 -3.75,3.32 -4.16,2.87 -4.44,2.33 -4.72,1.79 -4.87,1.20 -5.01,0.60 -5.01,-0.00 -5.01,-0.60 -4.87,-1.20 -4.72,-1.79 -4.44,-2.33 -4.16,-2.87 -3.75,-3.32 -3.35,-3.78 -2.85,-4.13 -2.34,-4.47 -1.77,-4.69 -1.20,-4.90 -0.60,-4.98 0.00,-5.05 0.00,-5.05 Z" pointer-events="all" transform="translate(696, 320)"/><path id="path_57905c45-3a20-4a82-3af2-d8fbdf958543" fill="#00bcd4" stroke="transparent" stroke-linecap="round" stroke-linejoin="round" stroke-width="0" d="M 35.22,5.73 Q 35.22,5.73 31.65,5.92 28.08,6.12 19.73,7.60 11.38,9.08 20.18,11.77 28.97,14.46 36.17,18.89 43.38,23.32 43.60,32.08 43.82,40.84 36.54,44.70 29.26,48.56 19.03,50.15 8.80,51.75 7.38,51.65 5.96,51.55 4.65,51.00 3.33,50.45 2.27,49.51 1.20,48.57 0.49,47.34 -0.22,46.11 -0.50,44.71 -0.78,43.32 -0.60,41.91 -0.43,40.50 0.18,39.22 0.80,37.94 1.80,36.92 2.80,35.91 4.06,35.26 5.33,34.62 6.74,34.41 8.15,34.20 9.55,34.46 10.95,34.71 12.19,35.40 13.44,36.09 14.40,37.14 15.36,38.19 15.93,39.49 16.51,40.79 16.64,42.21 16.76,43.62 16.43,45.01 16.11,46.39 15.35,47.60 14.60,48.80 13.50,49.70 12.40,50.61 11.07,51.11 9.74,51.61 8.31,51.67 6.89,51.72 5.53,51.31 4.17,50.91 3.00,50.09 1.84,49.27 1.00,48.13 0.16,46.98 -0.26,45.62 -0.69,44.27 -0.67,42.84 -0.65,41.42 -0.17,40.08 0.30,38.74 1.18,37.63 2.06,36.51 3.25,35.73 4.44,34.95 5.82,34.60 7.20,34.24 7.20,34.24 7.19,34.24 18.11,32.93 29.02,31.63 21.40,29.88 13.79,28.14 6.64,24.23 -0.49,20.33 -1.98,12.70 -3.46,5.08 4.34,0.42 12.16,-4.23 19.89,-4.89 27.61,-5.55 31.19,-5.64 34.77,-5.73 35.46,-5.67 36.14,-5.62 36.80,-5.40 37.46,-5.18 38.04,-4.81 38.63,-4.44 39.10,-3.94 39.58,-3.44 39.93,-2.84 40.28,-2.24 40.47,-1.58 40.66,-0.91 40.69,-0.22 40.71,0.46 40.58,1.14 40.44,1.81 40.14,2.44 39.84,3.06 39.41,3.60 38.97,4.14 38.42,4.55 37.86,4.97 37.23,5.24 36.59,5.51 35.91,5.62 35.22,5.73 35.22,5.73 Z" pointer-events="all" transform="translate(734, 295)"/><path id="path_06397319-2a74-4ff1-32d2-b8eb410c56b8" fill="#00bcd4" stroke="transparent" stroke-linecap="round" stroke-linejoin="round" stroke-width="0" d="M 29.70,6.67 Q 29.70,6.67 27.43,7.04 25.15,7.41 18.01,10.34 10.86,13.27 18.90,15.10 26.94,16.92 34.96,20.96 42.98,25.00 40.66,33.46 38.34,41.92 31.65,46.19 24.97,50.45 15.29,51.72 5.62,52.99 4.17,52.86 2.71,52.72 1.38,52.13 0.05,51.53 -1.02,50.55 -2.09,49.56 -2.79,48.28 -3.50,47.00 -3.75,45.57 -4.01,44.13 -3.80,42.69 -3.58,41.24 -2.92,39.94 -2.25,38.65 -1.21,37.63 -0.17,36.61 1.14,35.98 2.45,35.34 3.90,35.16 5.35,34.98 6.78,35.28 8.21,35.57 9.47,36.30 10.73,37.04 11.69,38.13 12.65,39.23 13.21,40.58 13.77,41.93 13.87,43.38 13.97,44.84 13.60,46.25 13.23,47.66 12.43,48.88 11.63,50.10 10.48,51.00 9.34,51.90 7.96,52.39 6.59,52.87 5.13,52.89 3.67,52.91 2.28,52.47 0.89,52.02 -0.28,51.16 -1.45,50.29 -2.29,49.10 -3.12,47.90 -3.53,46.50 -3.94,45.10 -3.89,43.64 -3.83,42.19 -3.31,40.82 -2.79,39.46 -1.86,38.33 -0.93,37.21 0.30,36.44 1.53,35.67 2.95,35.33 4.37,35.00 4.37,35.00 4.37,35.00 14.37,33.84 24.37,32.67 15.88,29.87 7.40,27.06 1.24,20.71 -4.91,14.37 1.54,7.28 7.99,0.19 15.84,-2.04 23.68,-4.27 25.99,-4.47 28.29,-4.67 28.98,-4.67 29.66,-4.67 30.33,-4.51 31.00,-4.35 31.62,-4.03 32.23,-3.71 32.74,-3.26 33.26,-2.80 33.66,-2.24 34.05,-1.67 34.30,-1.03 34.54,-0.38 34.63,0.29 34.71,0.98 34.63,1.66 34.55,2.34 34.31,2.99 34.07,3.63 33.68,4.20 33.29,4.77 32.77,5.23 32.26,5.69 31.65,6.01 31.04,6.33 30.37,6.50 29.70,6.67 29.70,6.67 Z" pointer-events="all" transform="translate(778, 291)"/><path id="path_fbca85ac-db9a-4ca6-3a6b-a8598fe37e66" fill="#00bcd4" stroke="transparent" stroke-linecap="round" stroke-linejoin="round" stroke-width="0" d="M 30,5.68 Q 30,5.68 26.85,5.76 23.70,5.83 15.76,6.13 7.81,6.43 9.12,14.01 10.44,21.59 10.71,29.04 10.97,36.50 19.58,34.53 28.18,32.57 35.50,31.45 42.82,30.34 44.24,30.37 45.65,30.41 46.98,30.90 48.30,31.39 49.40,32.28 50.51,33.17 51.27,34.36 52.03,35.55 52.37,36.92 52.71,38.29 52.59,39.70 52.47,41.11 51.91,42.41 51.35,43.71 50.41,44.76 49.46,45.81 48.23,46.51 47.00,47.20 45.61,47.47 44.22,47.73 42.82,47.54 41.42,47.35 40.15,46.72 38.89,46.09 37.89,45.09 36.89,44.09 36.27,42.82 35.64,41.55 35.45,40.15 35.26,38.75 35.53,37.36 35.80,35.97 36.49,34.74 37.19,33.51 38.24,32.57 39.30,31.63 40.60,31.07 41.90,30.51 43.31,30.40 44.71,30.29 46.09,30.63 47.46,30.97 48.65,31.73 49.84,32.50 50.72,33.60 51.61,34.70 52.09,36.03 52.58,37.36 52.62,38.77 52.65,40.19 52.24,41.54 51.82,42.89 50.99,44.03 50.17,45.18 49.02,46.01 47.87,46.83 46.52,47.24 45.16,47.66 45.16,47.66 45.17,47.65 39.34,48.66 33.51,49.66 25.90,50.54 18.29,51.41 9.51,50.29 0.73,49.18 -2.04,41.34 -4.83,33.49 -4.51,25.99 -4.20,18.48 -3.86,10.89 -3.51,3.30 2.15,-1.56 7.81,-6.43 15.76,-6.13 23.70,-5.83 26.85,-5.76 30,-5.68 30.68,-5.60 31.36,-5.52 32.00,-5.27 32.64,-5.03 33.20,-4.64 33.77,-4.25 34.22,-3.74 34.68,-3.23 34.99,-2.62 35.31,-2.01 35.48,-1.35 35.64,-0.68 35.64,0.00 35.64,0.68 35.48,1.35 35.31,2.01 34.99,2.62 34.68,3.23 34.22,3.74 33.77,4.25 33.20,4.64 32.64,5.03 32.00,5.27 31.36,5.52 30.68,5.60 29.99,5.68 29.99,5.68 Z" pointer-events="all" transform="translate(825, 292)"/><path id="path_08ce1ce7-4a6b-4596-2e20-22f9ccbc006d" fill="#00bcd4" stroke="transparent" stroke-linecap="round" stroke-linejoin="round" stroke-width="0" d="M 0.66,-4.24 Q 0.66,-4.24 10.08,-2.19 19.49,-0.15 19.98,0.00 20.48,0.16 20.89,0.47 21.30,0.78 21.60,1.21 21.89,1.64 22.03,2.13 22.17,2.63 22.15,3.15 22.12,3.66 21.93,4.15 21.74,4.63 21.41,5.02 21.08,5.42 20.64,5.69 20.20,5.96 19.69,6.07 19.19,6.19 18.67,6.13 18.16,6.08 17.69,5.87 17.22,5.65 16.84,5.30 16.46,4.94 16.22,4.49 15.97,4.03 15.89,3.52 15.80,3.01 15.88,2.50 15.96,1.99 16.20,1.53 16.44,1.08 16.81,0.72 17.19,0.36 17.65,0.14 18.12,-0.07 18.64,-0.13 19.15,-0.19 19.66,-0.08 20.16,0.02 20.61,0.28 21.05,0.55 21.39,0.94 21.72,1.33 21.92,1.81 22.11,2.29 22.14,2.81 22.17,3.32 22.04,3.82 21.90,4.32 21.62,4.75 21.33,5.18 20.92,5.50 20.51,5.81 20.02,5.98 19.53,6.15 19.01,6.15 18.50,6.15 18.50,6.15 18.50,6.15 8.91,5.19 -0.66,4.24 -1.16,4.09 -1.66,3.95 -2.11,3.70 -2.56,3.44 -2.93,3.08 -3.31,2.73 -3.59,2.29 -3.87,1.85 -4.03,1.36 -4.20,0.87 -4.24,0.36 -4.29,-0.15 -4.21,-0.66 -4.12,-1.17 -3.92,-1.65 -3.72,-2.13 -3.41,-2.54 -3.11,-2.96 -2.71,-3.28 -2.31,-3.61 -1.84,-3.84 -1.37,-4.06 -0.87,-4.17 -0.36,-4.27 0.15,-4.26 0.67,-4.24 0.66,-4.24 Z" pointer-events="all" transform="translate(827, 308)"/><path id="path_9af7d228-ed06-49fd-27c5-986848ff034f" fill="#00bcd4" stroke="transparent" stroke-linecap="round" stroke-linejoin="round" stroke-width="0" d="M 32.68,6.73 Q 32.68,6.73 30.10,6.67 27.52,6.61 19.81,7.51 12.09,8.41 19.35,11.88 26.61,15.36 34.06,19.30 41.52,23.24 43.51,31.02 45.50,38.81 42.69,46.61 39.87,54.42 32.44,57.60 25.01,60.78 15.74,61.53 6.47,62.28 4.97,62.11 3.48,61.94 2.11,61.31 0.75,60.67 -0.33,59.63 -1.41,58.59 -2.11,57.26 -2.81,55.93 -3.05,54.45 -3.29,52.96 -3.04,51.48 -2.79,50.00 -2.08,48.67 -1.37,47.34 -0.28,46.31 0.81,45.28 2.17,44.66 3.54,44.03 5.04,43.87 6.53,43.72 8.00,44.04 9.47,44.37 10.75,45.15 12.04,45.93 13.01,47.08 13.98,48.23 14.53,49.63 15.08,51.03 15.16,52.53 15.23,54.03 14.82,55.48 14.42,56.93 13.57,58.17 12.72,59.41 11.52,60.32 10.32,61.22 8.89,61.70 7.46,62.17 5.96,62.17 4.46,62.16 3.03,61.68 1.61,61.19 0.42,60.28 -0.77,59.36 -1.61,58.11 -2.45,56.87 -2.84,55.42 -3.24,53.97 -3.15,52.46 -3.07,50.96 -2.50,49.57 -1.94,48.17 -0.96,47.03 0.00,45.89 1.30,45.12 2.59,44.35 4.06,44.03 5.53,43.71 5.53,43.71 5.52,43.71 9.03,43.39 12.53,43.06 17.95,37.58 23.38,32.10 15.80,31.17 8.22,30.23 1.21,25.22 -5.78,20.21 -4.76,11.54 -3.74,2.87 4.09,-1.14 11.93,-5.16 20.05,-5.17 28.17,-5.18 30.74,-4.95 33.31,-4.73 33.99,-4.61 34.68,-4.48 35.31,-4.20 35.94,-3.92 36.49,-3.50 37.03,-3.07 37.46,-2.53 37.89,-1.99 38.18,-1.36 38.47,-0.73 38.60,-0.05 38.72,0.62 38.69,1.31 38.65,2.00 38.44,2.66 38.24,3.33 37.89,3.92 37.53,4.51 37.04,5.01 36.56,5.50 35.97,5.86 35.38,6.22 34.72,6.43 34.06,6.64 33.37,6.68 32.68,6.73 32.68,6.73 Z" pointer-events="all" transform="translate(874, 288)"/><path id="path_72b5f3aa-6c61-4cf0-243c-1d2c0cd1a347" fill="#00bcd4" stroke="transparent" stroke-linecap="round" stroke-linejoin="round" stroke-width="0" d="M 23.62,5.60 Q 23.62,5.60 21.05,5.97 18.49,6.34 24.26,12.82 30.03,19.30 35.57,24.26 41.12,29.21 39.70,36.71 38.27,44.22 31.25,47.94 24.23,51.67 16.32,52.53 8.41,53.38 5.24,53.32 2.08,53.26 0.60,53.03 -0.87,52.80 -2.21,52.11 -3.54,51.42 -4.58,50.34 -5.62,49.26 -6.26,47.91 -6.90,46.55 -7.08,45.07 -7.25,43.58 -6.94,42.11 -6.63,40.64 -5.87,39.35 -5.11,38.06 -3.98,37.08 -2.84,36.10 -1.46,35.53 -0.07,34.96 1.42,34.87 2.91,34.77 4.36,35.16 5.81,35.55 7.06,36.38 8.31,37.21 9.23,38.40 10.14,39.58 10.64,41.00 11.13,42.41 11.14,43.91 11.15,45.41 10.69,46.84 10.22,48.26 9.32,49.46 8.43,50.67 7.19,51.52 5.96,52.37 4.52,52.78 3.08,53.20 1.58,53.13 0.08,53.06 -1.31,52.52 -2.70,51.98 -3.85,51.02 -5.01,50.06 -5.79,48.78 -6.57,47.50 -6.91,46.04 -7.24,44.58 -7.09,43.09 -6.95,41.59 -6.33,40.23 -5.71,38.86 -4.69,37.76 -3.67,36.67 -2.35,35.95 -1.03,35.24 0.44,34.98 1.91,34.73 1.91,34.73 1.91,34.73 8.88,32.73 15.85,30.73 8.89,27.61 1.92,24.49 -2.15,17.76 -6.24,11.04 -2.30,4.16 1.63,-2.72 9.42,-3.96 17.21,-5.20 19.79,-5.40 22.37,-5.60 23.05,-5.59 23.73,-5.59 24.39,-5.42 25.05,-5.25 25.65,-4.92 26.25,-4.60 26.75,-4.15 27.25,-3.69 27.63,-3.13 28.01,-2.56 28.25,-1.93 28.48,-1.29 28.56,-0.61 28.63,0.05 28.54,0.73 28.46,1.40 28.21,2.03 27.96,2.67 27.57,3.22 27.18,3.78 26.66,4.22 26.15,4.67 25.55,4.98 24.94,5.29 24.28,5.44 23.62,5.60 23.62,5.60 Z" pointer-events="all" transform="translate(923, 285)"/><path id="path_b5c386bb-cced-41e1-0e76-bfe2423d649a" fill="#00bcd4" stroke="transparent" stroke-linecap="round" stroke-linejoin="round" stroke-width="0" d="M -5.69,53 Q -5.69,53 -5.73,49.13 -5.77,45.27 -5.68,37.44 -5.58,29.61 -5.80,22.11 -6.03,14.62 -0.92,8.62 4.18,2.63 10.65,8.79 17.12,14.95 22.58,8.56 28.05,2.18 36.46,0.42 44.88,-1.33 47.18,6.98 49.48,15.30 49.89,22.80 50.31,30.31 50.98,37.94 51.64,45.57 52.21,53.53 52.78,61.48 52.63,62.90 52.48,64.31 51.89,65.61 51.29,66.90 50.32,67.94 49.34,68.98 48.09,69.65 46.84,70.32 45.43,70.55 44.03,70.79 42.62,70.57 41.22,70.34 39.96,69.68 38.70,69.02 37.72,67.99 36.73,66.96 36.13,65.67 35.53,64.38 35.37,62.97 35.21,61.55 35.51,60.16 35.81,58.77 36.54,57.55 37.27,56.33 38.35,55.40 39.43,54.48 40.75,53.94 42.07,53.41 43.49,53.33 44.91,53.25 46.29,53.62 47.66,54.00 48.84,54.79 50.02,55.59 50.89,56.72 51.75,57.85 52.21,59.19 52.67,60.54 52.67,61.96 52.68,63.39 52.23,64.74 51.78,66.09 50.92,67.22 50.07,68.36 48.89,69.16 47.72,69.96 46.35,70.35 44.98,70.74 43.56,70.66 42.14,70.59 40.81,70.07 39.49,69.55 38.40,68.63 37.31,67.71 36.57,66.50 35.84,65.28 35.53,63.89 35.21,62.50 35.21,62.50 35.21,62.51 34.45,53.75 33.69,44.99 33.10,35.58 32.52,26.18 37.60,18.78 42.67,11.37 38.75,18.31 34.82,25.25 30.17,31.31 25.53,37.37 17.03,33.80 8.53,30.23 8.24,22.47 7.96,14.72 7.41,22.39 6.85,30.07 6.31,37.67 5.77,45.27 5.73,49.13 5.69,53 5.61,53.68 5.53,54.36 5.28,55.00 5.04,55.64 4.65,56.21 4.26,56.77 3.75,57.23 3.23,57.69 2.62,58.00 2.02,58.32 1.35,58.49 0.68,58.65 -0.00,58.65 -0.68,58.65 -1.35,58.49 -2.02,58.32 -2.62,58.00 -3.23,57.68 -3.75,57.23 -4.26,56.77 -4.65,56.21 -5.04,55.64 -5.28,55.00 -5.53,54.36 -5.61,53.68 -5.69,52.99 -5.69,52.99 Z" pointer-events="all" transform="translate(973, 276)"/><path id="path_2275e68d-6f54-4afa-3d94-d79678796b97" fill="#00bcd4" stroke="transparent" stroke-linecap="round" stroke-linejoin="round" stroke-width="0" d="M 0,-5.74 Q 0,-5.74 3.86,-5.78 7.72,-5.82 16.50,-6.03 25.28,-6.23 35.64,-6.51 46,-6.79 47.08,-6.61 48.16,-6.43 49.13,-5.92 50.11,-5.40 50.86,-4.60 51.62,-3.81 52.08,-2.81 52.54,-1.81 52.66,-0.72 52.78,0.36 52.54,1.44 52.30,2.51 51.74,3.45 51.17,4.39 50.33,5.10 49.50,5.81 48.48,6.22 47.45,6.63 46.36,6.69 45.26,6.75 44.20,6.45 43.14,6.16 42.23,5.54 41.32,4.93 40.66,4.05 39.99,3.18 39.64,2.13 39.29,1.09 39.29,-0.00 39.29,-1.09 39.64,-2.14 40.00,-3.18 40.66,-4.05 41.33,-4.93 42.23,-5.54 43.14,-6.16 44.20,-6.45 45.26,-6.75 46.36,-6.69 47.46,-6.63 48.48,-6.22 49.50,-5.81 50.34,-5.10 51.17,-4.39 51.74,-3.45 52.30,-2.51 52.54,-1.43 52.78,-0.36 52.66,0.72 52.54,1.81 52.08,2.81 51.62,3.81 50.86,4.61 50.10,5.40 49.13,5.92 48.16,6.43 47.08,6.61 45.99,6.79 45.99,6.79 46,6.79 35.64,6.51 25.28,6.23 16.50,6.03 7.72,5.82 3.86,5.78 0,5.74 -0.68,5.66 -1.37,5.58 -2.02,5.33 -2.67,5.09 -3.24,4.69 -3.81,4.30 -4.27,3.78 -4.73,3.26 -5.05,2.65 -5.37,2.03 -5.54,1.36 -5.70,0.69 -5.70,-0.00 -5.70,-0.69 -5.54,-1.36 -5.37,-2.03 -5.05,-2.65 -4.73,-3.26 -4.27,-3.78 -3.81,-4.30 -3.24,-4.69 -2.67,-5.09 -2.02,-5.33 -1.37,-5.58 -0.68,-5.66 0.00,-5.74 0.00,-5.74 Z" pointer-events="all" transform="translate(1032, 277)"/><path id="path_ae0b4a8e-69c0-4d51-0a89-9ab55a3b7748" fill="#00bcd4" stroke="transparent" stroke-linecap="round" stroke-linejoin="round" stroke-width="0" d="M 5.74,-0.47 Q 5.74,-0.47 6.08,2.94 6.42,6.37 7.26,15.21 8.10,24.06 8.89,32.13 9.68,40.21 17.90,39.91 26.12,39.61 27.19,43.71 28.27,47.81 27.51,46.59 26.76,45.36 26.44,43.96 26.12,42.55 26.26,41.12 26.40,39.69 27.00,38.38 27.59,37.07 28.57,36.01 29.55,34.96 30.82,34.27 32.08,33.59 33.50,33.34 34.92,33.10 36.34,33.32 37.76,33.54 39.04,34.20 40.32,34.87 41.32,35.90 42.31,36.94 42.93,38.24 43.55,39.54 43.71,40.97 43.88,42.40 43.58,43.81 43.29,45.22 42.56,46.46 41.82,47.70 40.74,48.64 39.65,49.58 38.31,50.12 36.98,50.67 35.55,50.76 34.11,50.85 32.72,50.47 31.33,50.10 30.13,49.30 28.93,48.51 28.05,47.37 27.17,46.23 26.70,44.87 26.23,43.51 26.22,42.07 26.20,40.63 26.65,39.26 27.10,37.89 27.96,36.74 28.82,35.59 30.01,34.77 31.19,33.95 32.57,33.56 33.96,33.16 35.40,33.23 36.83,33.29 38.18,33.81 39.52,34.33 40.62,35.26 41.73,36.18 41.73,36.18 41.72,36.18 43.55,39.99 45.37,43.80 38.79,50.23 32.21,56.65 24.73,56.48 17.24,56.30 9.42,55.47 1.60,54.63 -1.62,47.81 -4.85,40.99 -4.85,32.80 -4.84,24.61 -5.06,15.98 -5.28,7.35 -5.51,3.91 -5.74,0.47 -5.71,-0.21 -5.68,-0.90 -5.49,-1.57 -5.30,-2.24 -4.95,-2.84 -4.61,-3.44 -4.13,-3.95 -3.65,-4.45 -3.06,-4.82 -2.48,-5.19 -1.82,-5.41 -1.16,-5.64 -0.47,-5.69 0.21,-5.75 0.90,-5.64 1.58,-5.53 2.22,-5.26 2.86,-4.99 3.42,-4.58 3.97,-4.16 4.42,-3.62 4.86,-3.09 5.16,-2.46 5.45,-1.83 5.59,-1.15 5.74,-0.47 5.74,-0.47 Z" pointer-events="all" transform="translate(1034, 281)"/><path id="path_831be91c-8571-4545-074e-4592da4e6f67" fill="#00bcd4" stroke="transparent" stroke-linecap="round" stroke-linejoin="round" stroke-width="0" d="M 0,-4.52 Q 0,-4.52 8.5,-4.12 17,-3.73 17.59,-3.63 18.19,-3.53 18.72,-3.25 19.25,-2.97 19.67,-2.53 20.09,-2.09 20.34,-1.54 20.59,-0.99 20.66,-0.39 20.72,0.20 20.59,0.79 20.46,1.38 20.15,1.90 19.84,2.41 19.38,2.80 18.92,3.19 18.36,3.42 17.80,3.64 17.19,3.67 16.59,3.71 16.01,3.55 15.43,3.38 14.93,3.04 14.43,2.71 14.06,2.22 13.70,1.74 13.50,1.17 13.31,0.60 13.31,-0.00 13.31,-0.60 13.50,-1.17 13.70,-1.74 14.06,-2.23 14.43,-2.71 14.93,-3.05 15.43,-3.38 16.01,-3.55 16.59,-3.71 17.20,-3.67 17.80,-3.64 18.36,-3.42 18.92,-3.19 19.38,-2.80 19.84,-2.41 20.15,-1.89 20.46,-1.38 20.59,-0.79 20.72,-0.20 20.66,0.39 20.59,0.99 20.34,1.54 20.09,2.09 19.67,2.53 19.25,2.97 18.72,3.25 18.19,3.53 17.59,3.63 16.99,3.73 16.99,3.73 17,3.73 8.5,4.12 0,4.52 -0.54,4.45 -1.08,4.38 -1.59,4.19 -2.10,4.00 -2.54,3.69 -2.99,3.38 -3.35,2.97 -3.72,2.56 -3.97,2.08 -4.22,1.60 -4.35,1.07 -4.48,0.54 -4.48,-0.00 -4.48,-0.54 -4.35,-1.07 -4.22,-1.60 -3.97,-2.08 -3.72,-2.56 -3.35,-2.97 -2.99,-3.38 -2.54,-3.69 -2.10,-4.00 -1.59,-4.19 -1.08,-4.38 -0.54,-4.45 0.00,-4.52 0.00,-4.52 Z" pointer-events="all" transform="translate(1039, 299)"/><path id="path_c74db3d4-8b04-4e92-309d-1a0a68aaf950" fill="#00bcd4" stroke="transparent" stroke-linecap="round" stroke-linejoin="round" stroke-width="0" d="M -3.74,59 Q -3.74,59 -3.81,55.99 -3.89,52.99 -4.19,45.43 -4.49,37.87 -5.49,29.04 -6.49,20.21 0.16,16.86 6.83,13.50 13.91,19.19 20.99,24.87 26.19,30.14 31.40,35.41 37.28,41.19 43.16,46.98 36.28,50.69 29.40,54.40 27.75,45.47 26.10,36.54 25.74,28.35 25.39,20.16 24.31,12.47 23.23,4.77 23.19,2.54 23.15,0.31 23.35,-1.26 23.56,-2.84 24.26,-4.28 24.97,-5.71 26.09,-6.84 27.21,-7.97 28.64,-8.69 30.06,-9.40 31.64,-9.62 33.22,-9.85 34.78,-9.55 36.35,-9.26 37.74,-8.48 39.13,-7.70 40.20,-6.52 41.27,-5.34 41.91,-3.88 42.55,-2.42 42.68,-0.83 42.82,0.75 42.44,2.30 42.06,3.85 41.21,5.20 40.36,6.54 39.12,7.55 37.88,8.55 36.39,9.11 34.89,9.66 33.30,9.71 31.71,9.76 30.18,9.30 28.66,8.84 27.36,7.92 26.06,6.99 25.12,5.70 24.19,4.41 23.71,2.89 23.24,1.37 23.27,-0.22 23.31,-1.81 23.85,-3.31 24.40,-4.81 25.39,-6.05 26.38,-7.30 27.72,-8.17 29.06,-9.03 30.61,-9.42 32.15,-9.81 33.74,-9.69 35.33,-9.57 36.80,-8.94 38.27,-8.32 39.46,-7.26 40.65,-6.20 41.44,-4.82 42.23,-3.43 42.54,-1.87 42.84,-0.30 42.84,-0.31 42.84,-0.31 43.14,5.86 43.43,12.04 44.07,20.21 44.71,28.39 45.22,36.36 45.72,44.33 43.60,52.98 41.47,61.62 30.96,55.58 20.44,49.55 15.48,43.49 10.52,37.43 9.04,30.06 7.55,22.69 8.02,30.28 8.49,37.87 8.19,45.43 7.89,52.99 7.81,55.99 7.74,59 7.65,59.68 7.57,60.37 7.32,61.02 7.08,61.66 6.69,62.23 6.29,62.80 5.77,63.26 5.26,63.72 4.64,64.04 4.03,64.36 3.36,64.53 2.69,64.70 1.99,64.70 1.30,64.70 0.63,64.53 -0.03,64.36 -0.64,64.04 -1.26,63.72 -1.78,63.26 -2.29,62.80 -2.69,62.23 -3.08,61.66 -3.33,61.02 -3.57,60.37 -3.65,59.68 -3.74,58.99 -3.74,58.99 Z" pointer-events="all" transform="translate(1081, 272)"/><path id="path_63752cd6-7dfb-4141-10d0-f315452fe40e" fill="#00bcd4" stroke="transparent" stroke-linecap="round" stroke-linejoin="round" stroke-width="0" d="M -0.23,-4.73 Q -0.23,-4.73 3.19,-4.93 6.62,-5.13 15.09,-5.70 23.56,-6.28 31.90,-6.77 40.23,-7.26 43.61,-7.26 46.98,-7.26 48.14,-7.08 49.30,-6.89 50.34,-6.34 51.38,-5.79 52.19,-4.94 53.00,-4.09 53.50,-3.02 54.00,-1.95 54.13,-0.78 54.25,0.38 54.00,1.52 53.75,2.67 53.15,3.68 52.54,4.69 51.65,5.45 50.75,6.22 49.66,6.65 48.57,7.09 47.40,7.16 46.22,7.22 45.09,6.91 43.95,6.60 42.98,5.94 42.00,5.28 41.29,4.35 40.58,3.41 40.20,2.30 39.82,1.18 39.82,0.01 39.82,-1.16 40.19,-2.27 40.57,-3.39 41.28,-4.33 41.99,-5.26 42.96,-5.93 43.93,-6.59 45.06,-6.90 46.20,-7.22 47.37,-7.16 48.55,-7.10 49.64,-6.66 50.73,-6.23 51.63,-5.47 52.53,-4.71 53.14,-3.70 53.74,-2.70 54.00,-1.55 54.25,-0.40 54.13,0.76 54.00,1.93 53.51,3.00 53.02,4.07 52.21,4.92 51.40,5.78 50.37,6.33 49.33,6.88 48.17,7.07 47.01,7.26 47.01,7.26 47.01,7.26 43.64,7.28 40.27,7.29 32.06,6.97 23.84,6.65 15.47,6.60 7.10,6.56 3.67,6.65 0.23,6.73 -0.45,6.67 -1.14,6.62 -1.79,6.40 -2.45,6.18 -3.03,5.81 -3.62,5.45 -4.10,4.95 -4.58,4.45 -4.93,3.85 -5.27,3.25 -5.47,2.59 -5.66,1.92 -5.69,1.23 -5.72,0.54 -5.58,-0.13 -5.44,-0.81 -5.15,-1.43 -4.85,-2.06 -4.41,-2.59 -3.98,-3.13 -3.42,-3.55 -2.87,-3.96 -2.23,-4.23 -1.60,-4.51 -0.92,-4.62 -0.23,-4.73 -0.23,-4.73 Z" pointer-events="all" transform="translate(1133, 269)"/><path id="path_25b9c19f-18e0-41b9-158c-62c3c73088a1" fill="#00bcd4" stroke="transparent" stroke-linecap="round" stroke-linejoin="round" stroke-width="0" d="M 5.72,-0.19 Q 5.72,-0.19 5.88,3.94 6.04,8.09 6.29,18.53 6.54,28.98 6.65,36.76 6.76,44.54 6.94,50.79 7.13,57.04 6.94,58.18 6.74,59.32 6.19,60.33 5.65,61.35 4.80,62.14 3.96,62.93 2.91,63.40 1.86,63.88 0.71,64.00 -0.43,64.12 -1.55,63.86 -2.68,63.61 -3.66,63.00 -4.65,62.40 -5.39,61.52 -6.13,60.63 -6.55,59.56 -6.97,58.48 -7.03,57.33 -7.08,56.18 -6.77,55.07 -6.45,53.96 -5.80,53.01 -5.14,52.05 -4.22,51.36 -3.30,50.67 -2.20,50.31 -1.10,49.95 0.04,49.95 1.20,49.96 2.29,50.34 3.38,50.71 4.29,51.42 5.21,52.12 5.85,53.08 6.49,54.04 6.79,55.16 7.09,56.27 7.02,57.42 6.95,58.57 6.52,59.64 6.08,60.71 5.33,61.59 4.58,62.46 3.59,63.05 2.59,63.64 1.46,63.88 0.33,64.12 -0.80,63.99 -1.95,63.86 -2.99,63.37 -4.04,62.87 -4.87,62.07 -5.70,61.28 -6.24,60.25 -6.77,59.23 -6.95,58.09 -7.13,56.95 -7.13,56.95 -7.13,56.95 -6.83,50.63 -6.52,44.30 -6.07,36.47 -5.63,28.63 -5.55,18.56 -5.47,8.49 -5.59,4.34 -5.72,0.19 -5.66,-0.49 -5.60,-1.17 -5.37,-1.83 -5.15,-2.48 -4.78,-3.06 -4.41,-3.64 -3.91,-4.12 -3.41,-4.59 -2.81,-4.93 -2.21,-5.27 -1.54,-5.46 -0.88,-5.65 -0.19,-5.67 0.49,-5.70 1.16,-5.56 1.84,-5.41 2.46,-5.11 3.08,-4.82 3.61,-4.38 4.15,-3.94 4.56,-3.38 4.97,-2.83 5.24,-2.19 5.50,-1.56 5.61,-0.87 5.72,-0.19 5.72,-0.19 Z" pointer-events="all" transform="translate(1154, 270)"/><path id="path_de6013f1-19ec-4eb3-2f21-6692f0848249" fill="#00bcd4" stroke="transparent" stroke-linecap="round" stroke-linejoin="round" stroke-width="0" d="M 41.02,6.66 Q 41.02,6.66 37.89,7.29 34.76,7.93 27.75,10.81 20.75,13.69 27.00,17.66 33.25,21.62 41.82,24.80 50.40,27.97 52.03,35.26 53.66,42.55 47.91,48.00 42.16,53.46 34.05,56.42 25.94,59.38 18.29,60.25 10.63,61.12 4.27,59.99 -2.09,58.87 -3.45,58.30 -4.82,57.73 -5.93,56.76 -7.03,55.79 -7.78,54.51 -8.52,53.24 -8.81,51.79 -9.11,50.35 -8.92,48.88 -8.74,47.42 -8.10,46.09 -7.46,44.76 -6.43,43.71 -5.40,42.65 -4.09,41.98 -2.77,41.31 -1.31,41.09 0.14,40.88 1.59,41.14 3.04,41.40 4.33,42.11 5.62,42.82 6.62,43.91 7.62,45.00 8.22,46.34 8.82,47.69 8.95,49.16 9.09,50.63 8.75,52.07 8.41,53.50 7.63,54.75 6.85,56.01 5.71,56.94 4.57,57.88 3.20,58.40 1.82,58.93 0.34,58.99 -1.12,59.04 -2.54,58.63 -3.95,58.21 -5.16,57.36 -6.37,56.52 -7.24,55.33 -8.12,54.14 -8.57,52.73 -9.02,51.33 -8.99,49.85 -8.97,48.38 -8.48,46.99 -7.98,45.60 -7.07,44.44 -6.16,43.28 -4.93,42.47 -3.69,41.66 -2.27,41.29 -0.84,40.92 0.62,41.02 2.09,41.12 2.09,41.12 2.09,41.12 11.86,41.24 21.63,41.36 29.23,40.37 36.83,39.38 29.57,37.75 22.30,36.13 13.84,32.98 5.38,29.83 4.22,20.73 3.06,11.63 9.21,6.75 15.37,1.87 24.01,-0.88 32.65,-3.65 35.81,-4.15 38.97,-4.66 39.66,-4.70 40.35,-4.74 41.03,-4.61 41.71,-4.49 42.35,-4.20 42.98,-3.91 43.52,-3.49 44.07,-3.06 44.50,-2.51 44.92,-1.96 45.21,-1.33 45.49,-0.70 45.61,-0.02 45.74,0.66 45.70,1.35 45.65,2.04 45.45,2.70 45.24,3.36 44.88,3.96 44.52,4.55 44.03,5.04 43.54,5.53 42.94,5.89 42.35,6.25 41.69,6.45 41.02,6.66 41.02,6.66 Z" pointer-events="all" transform="translate(1172, 275)"/><path id="path_8a2e01b5-4e4c-4868-3a3e-96591ce7699d" fill="#673ab7" stroke="transparent" stroke-linecap="round" stroke-linejoin="round" stroke-width="0" d="M 53.84,6.53 Q 53.84,6.53 50.86,7.59 47.87,8.65 39.92,11.66 31.97,14.66 24.58,19.15 17.20,23.63 13.59,31.06 9.98,38.49 11.64,46.99 13.29,55.49 19.62,61.79 25.95,68.08 33.05,71.99 40.16,75.91 48.08,77.59 56.01,79.28 64.86,79.80 73.70,80.32 80.50,76.92 87.31,73.51 89.71,66.00 92.11,58.49 92.29,50.59 92.47,42.69 89.25,35.95 86.04,29.20 80.35,23.95 74.66,18.69 67.22,16.46 59.78,14.23 54.24,13.88 48.70,13.53 47.19,13.24 45.67,12.94 44.33,12.18 42.99,11.41 41.96,10.26 40.93,9.11 40.33,7.69 39.72,6.26 39.60,4.73 39.49,3.19 39.86,1.69 40.24,0.19 41.08,-1.10 41.91,-2.39 43.12,-3.36 44.33,-4.32 45.78,-4.85 47.23,-5.37 48.77,-5.41 50.32,-5.45 51.79,-4.99 53.27,-4.53 54.52,-3.62 55.77,-2.72 56.66,-1.46 57.56,-0.20 58.01,1.26 58.46,2.74 58.41,4.29 58.36,5.83 57.82,7.28 57.29,8.72 56.31,9.92 55.34,11.12 54.04,11.95 52.73,12.78 51.23,13.14 49.73,13.51 48.20,13.38 46.66,13.25 45.24,12.63 43.82,12.02 42.68,10.98 41.53,9.95 40.78,8.60 40.02,7.25 39.74,5.73 39.45,4.22 39.67,2.69 39.88,1.16 40.57,-0.21 41.26,-1.59 42.36,-2.68 43.46,-3.77 44.84,-4.45 46.23,-5.13 47.76,-5.33 49.29,-5.53 49.29,-5.53 49.29,-5.53 58.10,-5.09 66.90,-4.65 74.03,-1.89 81.16,0.87 87.67,5.24 94.19,9.60 98.93,16.15 103.67,22.70 106.42,29.72 109.17,36.73 109.52,45.04 109.87,53.36 108.54,61.16 107.21,68.97 104.06,76.05 100.91,83.13 93.49,88.67 86.08,94.21 77.60,95.05 69.12,95.90 61.46,95.08 53.80,94.26 44.09,92.06 34.38,89.86 25.45,84.85 16.52,79.85 10.92,74.84 5.32,69.83 0.87,63.66 -3.57,57.48 -4.45,48.78 -5.33,40.09 -3.06,32.24 -0.78,24.40 4.46,18.25 9.71,12.11 18.40,7.52 27.10,2.93 35.60,0.13 44.10,-2.65 47.13,-3.59 50.15,-4.53 50.84,-4.67 51.53,-4.81 52.23,-4.78 52.93,-4.75 53.61,-4.55 54.28,-4.36 54.89,-4.01 55.50,-3.65 56.01,-3.17 56.51,-2.68 56.89,-2.09 57.26,-1.49 57.49,-0.82 57.71,-0.16 57.76,0.53 57.82,1.23 57.71,1.93 57.59,2.62 57.32,3.27 57.04,3.91 56.62,4.47 56.20,5.04 55.65,5.48 55.11,5.92 54.47,6.22 53.84,6.53 53.84,6.53 Z" pointer-events="all" transform="translate(714, 360)"/><path id="path_8418c664-4b13-4a80-0568-0d120a32db16" fill="#673ab7" stroke="transparent" stroke-linecap="round" stroke-linejoin="round" stroke-width="0" d="M 4.13,-3.93 Q 4.13,-3.93 6.88,-1.09 9.62,1.74 15.01,6.82 20.41,11.91 28.17,17.71 35.94,23.50 36.71,24.28 37.48,25.05 37.97,26.03 38.46,27.01 38.60,28.09 38.75,29.18 38.55,30.25 38.34,31.32 37.80,32.28 37.26,33.23 36.45,33.96 35.64,34.69 34.63,35.12 33.63,35.55 32.54,35.64 31.45,35.73 30.39,35.47 29.33,35.20 28.40,34.62 27.48,34.03 26.80,33.18 26.11,32.32 25.74,31.30 25.36,30.27 25.33,29.18 25.30,28.08 25.62,27.04 25.94,25.99 26.58,25.11 27.21,24.22 28.10,23.58 28.99,22.94 30.04,22.62 31.08,22.30 32.17,22.33 33.27,22.36 34.29,22.73 35.32,23.11 36.17,23.80 37.02,24.48 37.61,25.40 38.20,26.32 38.47,27.38 38.73,28.45 38.64,29.53 38.55,30.62 38.12,31.63 37.69,32.63 36.96,33.45 36.23,34.26 35.28,34.80 34.33,35.34 33.25,35.54 32.18,35.75 31.10,35.60 30.01,35.46 29.03,34.97 28.05,34.48 28.05,34.49 28.05,34.49 19.93,27.70 11.80,20.92 6.52,15.31 1.24,9.69 -1.44,6.81 -4.13,3.93 -4.54,3.37 -4.95,2.82 -5.22,2.19 -5.49,1.55 -5.59,0.87 -5.70,0.19 -5.64,-0.48 -5.58,-1.17 -5.36,-1.82 -5.14,-2.47 -4.77,-3.05 -4.40,-3.63 -3.90,-4.10 -3.40,-4.58 -2.80,-4.92 -2.20,-5.26 -1.54,-5.45 -0.88,-5.64 -0.19,-5.66 0.49,-5.68 1.16,-5.54 1.83,-5.40 2.45,-5.10 3.07,-4.80 3.60,-4.36 4.13,-3.93 4.13,-3.93 Z" pointer-events="all" transform="translate(788, 421)"/><path id="path_497428ed-597d-4afc-22ab-6793c3b69d49" fill="#673ab7" stroke="transparent" stroke-linecap="round" stroke-linejoin="round" stroke-width="0" d="M 5.80,7 Q 5.80,7 5.86,10.43 5.92,13.86 6.24,22.83 6.57,31.80 7.85,39.71 9.12,47.61 11.09,55.01 13.05,62.41 18.67,67.81 24.28,73.22 26.12,65.62 27.96,58.02 28.49,48.80 29.02,39.58 29.11,31.46 29.20,23.33 29.09,15.23 28.99,7.14 29.11,3.56 29.23,-0.01 29.46,-1.41 29.69,-2.81 30.36,-4.06 31.03,-5.31 32.06,-6.29 33.09,-7.26 34.38,-7.85 35.67,-8.45 37.08,-8.60 38.49,-8.75 39.87,-8.44 41.26,-8.13 42.47,-7.40 43.68,-6.67 44.60,-5.58 45.52,-4.50 46.04,-3.18 46.56,-1.86 46.63,-0.45 46.71,0.96 46.33,2.33 45.94,3.69 45.15,4.86 44.35,6.04 43.22,6.89 42.09,7.75 40.74,8.20 39.40,8.65 37.98,8.65 36.56,8.64 35.22,8.19 33.87,7.73 32.75,6.87 31.62,6.01 30.82,4.83 30.03,3.66 29.65,2.29 29.28,0.92 29.36,-0.48 29.44,-1.90 29.97,-3.21 30.49,-4.53 31.41,-5.61 32.33,-6.69 33.55,-7.42 34.77,-8.15 36.15,-8.45 37.54,-8.75 38.95,-8.59 40.36,-8.44 41.64,-7.84 42.93,-7.24 43.96,-6.26 44.99,-5.29 45.65,-4.03 46.31,-2.78 46.54,-1.38 46.76,0.01 46.76,0.01 46.76,0.01 46.74,8.06 46.71,16.12 46.57,23.86 46.42,31.60 46.09,40.71 45.76,49.83 45.00,57.79 44.23,65.75 40.67,74.34 37.10,82.94 28.65,85.83 20.20,88.72 13.74,84.37 7.29,80.03 3.39,73.42 -0.50,66.82 -2.23,58.32 -3.96,49.83 -4.98,41.12 -6.00,32.41 -5.96,23.13 -5.92,13.86 -5.86,10.43 -5.80,7 -5.72,6.30 -5.63,5.61 -5.39,4.95 -5.14,4.30 -4.74,3.72 -4.34,3.14 -3.82,2.68 -3.29,2.22 -2.67,1.89 -2.05,1.57 -1.37,1.40 -0.69,1.23 0.00,1.23 0.70,1.23 1.37,1.40 2.05,1.57 2.67,1.89 3.29,2.22 3.82,2.68 4.34,3.14 4.74,3.72 5.14,4.30 5.39,4.95 5.63,5.61 5.72,6.30 5.80,7.00 5.80,7.00 Z" pointer-events="all" transform="translate(837, 359)"/><path id="path_5300773b-28e2-473c-3eef-9660fd7a8dd7" fill="#673ab7" stroke="transparent" stroke-linecap="round" stroke-linejoin="round" stroke-width="0" d="M 11.63,1.51 Q 11.63,1.51 11.18,6.22 10.73,10.94 10.26,19.19 9.78,27.44 9.31,37.02 8.84,46.59 8.85,55.07 8.86,63.55 8.69,71.66 8.53,79.77 7.87,83.16 7.20,86.56 6.77,87.67 6.33,88.78 5.56,89.69 4.79,90.60 3.77,91.22 2.75,91.84 1.58,92.10 0.42,92.36 -0.76,92.24 -1.95,92.11 -3.03,91.61 -4.12,91.11 -4.99,90.29 -5.86,89.48 -6.42,88.42 -6.98,87.37 -7.18,86.19 -7.37,85.02 -7.18,83.84 -6.99,82.66 -6.44,81.60 -5.88,80.55 -5.02,79.72 -4.15,78.90 -3.07,78.40 -1.99,77.89 -0.80,77.76 0.37,77.63 1.54,77.88 2.71,78.13 3.73,78.75 4.76,79.36 5.53,80.27 6.31,81.17 6.75,82.28 7.20,83.39 7.26,84.58 7.33,85.77 7.02,86.92 6.70,88.07 6.03,89.06 5.36,90.05 4.42,90.78 3.47,91.50 2.34,91.89 1.21,92.27 0.01,92.28 -1.17,92.28 -2.30,91.90 -3.43,91.52 -4.39,90.80 -5.34,90.08 -6.01,89.10 -6.68,88.11 -7.00,86.96 -7.33,85.81 -7.27,84.62 -7.20,83.43 -7.20,83.43 -7.20,83.43 -6.66,81.24 -6.11,79.06 -5.29,71.17 -4.46,63.28 -3.89,54.60 -3.31,45.92 -2.46,36.37 -1.60,26.82 -1.02,18.37 -0.45,9.92 -0.04,5.20 0.36,0.48 0.50,-0.17 0.64,-0.84 0.94,-1.46 1.24,-2.07 1.68,-2.59 2.12,-3.12 2.66,-3.52 3.21,-3.93 3.84,-4.19 4.48,-4.45 5.15,-4.55 5.82,-4.65 6.50,-4.59 7.18,-4.53 7.83,-4.31 8.47,-4.08 9.05,-3.71 9.62,-3.34 10.09,-2.85 10.56,-2.35 10.89,-1.76 11.23,-1.16 11.41,-0.50 11.59,0.14 11.61,0.83 11.63,1.51 11.63,1.51 Z" pointer-events="all" transform="translate(901, 360)"/><path id="path_3ab1467a-bcfe-4f41-010a-4fb138a55e61" fill="#673ab7" stroke="transparent" stroke-linecap="round" stroke-linejoin="round" stroke-width="0" d="M 3,-5.72 Q 3,-5.72 6.43,-5.78 9.86,-5.84 18.58,-6.14 27.30,-6.44 35.74,-3.13 44.18,0.17 41.70,8.50 39.21,16.83 34.20,26.44 29.18,36.04 25.05,43.47 20.93,50.90 17.32,58.25 13.71,65.60 11.50,73.75 9.28,81.90 16.02,78.41 22.76,74.93 30.38,75.28 37.99,75.63 42.60,76.33 47.20,77.04 48.57,77.63 49.95,78.21 51.06,79.21 52.17,80.20 52.91,81.50 53.65,82.80 53.93,84.26 54.22,85.73 54.02,87.21 53.82,88.68 53.16,90.02 52.50,91.36 51.44,92.42 50.39,93.48 49.06,94.14 47.72,94.81 46.24,95.01 44.76,95.22 43.30,94.94 41.83,94.66 40.53,93.93 39.23,93.20 38.23,92.09 37.23,90.98 36.64,89.61 36.05,88.24 35.92,86.75 35.80,85.26 36.16,83.81 36.51,82.37 37.32,81.11 38.12,79.85 39.28,78.91 40.44,77.97 41.84,77.46 43.24,76.94 44.73,76.90 46.22,76.85 47.65,77.29 49.08,77.72 50.29,78.59 51.51,79.46 52.38,80.67 53.25,81.88 53.69,83.31 54.13,84.73 54.10,86.23 54.06,87.72 53.55,89.12 53.03,90.52 52.10,91.69 51.17,92.85 49.91,93.66 48.66,94.46 47.21,94.82 45.76,95.19 44.27,95.07 42.78,94.95 42.79,94.95 42.79,94.95 35.13,93.84 27.47,92.72 19.74,92.24 12.00,91.75 3.98,88.63 -4.03,85.52 -3.73,76.57 -3.42,67.63 -0.00,59.76 3.42,51.88 7.13,45.44 10.85,39.00 15.17,31.27 19.49,23.53 23.40,14.99 27.30,6.44 18.58,6.14 9.86,5.84 6.43,5.78 3,5.72 2.31,5.64 1.62,5.55 0.98,5.31 0.33,5.06 -0.22,4.67 -0.79,4.28 -1.25,3.76 -1.71,3.25 -2.03,2.64 -2.35,2.02 -2.51,1.35 -2.68,0.68 -2.68,-0.00 -2.68,-0.69 -2.51,-1.36 -2.35,-2.03 -2.03,-2.64 -1.71,-3.25 -1.25,-3.76 -0.79,-4.28 -0.22,-4.67 0.34,-5.06 0.98,-5.31 1.63,-5.55 2.31,-5.64 3.00,-5.72 3.00,-5.72 Z" pointer-events="all" transform="translate(927, 360)"/><path id="path_e9e3f494-e19c-42b4-096c-2f3336406933" fill="#673ab7" stroke="transparent" stroke-linecap="round" stroke-linejoin="round" stroke-width="0" d="M 0.24,-5.71 Q 0.24,-5.71 3.54,-5.63 6.83,-5.56 15.93,-5.10 25.03,-4.64 33.25,-2.00 41.48,0.64 40.67,8.78 39.85,16.91 35.98,24.64 32.10,32.36 28.33,40.65 24.57,48.95 21.78,56.62 19.00,64.28 16.33,71.52 13.65,78.77 21.68,78.76 29.71,78.75 34.39,78.80 39.07,78.84 40.53,79.09 41.99,79.35 43.29,80.05 44.60,80.75 45.61,81.84 46.61,82.92 47.23,84.27 47.84,85.62 47.98,87.09 48.13,88.57 47.80,90.01 47.47,91.46 46.70,92.72 45.92,93.98 44.78,94.93 43.65,95.88 42.27,96.41 40.89,96.95 39.41,97.02 37.93,97.09 36.50,96.68 35.08,96.27 33.86,95.43 32.64,94.59 31.76,93.40 30.87,92.21 30.41,90.81 29.95,89.40 29.96,87.92 29.97,86.44 30.46,85.04 30.94,83.64 31.85,82.47 32.76,81.30 33.99,80.48 35.22,79.65 36.65,79.27 38.08,78.89 39.56,78.98 41.04,79.07 42.41,79.63 43.78,80.19 44.90,81.16 46.02,82.13 46.78,83.41 47.53,84.68 47.83,86.13 48.14,87.58 47.97,89.05 47.79,90.52 47.16,91.86 46.53,93.20 45.50,94.26 44.47,95.33 43.16,96.01 41.84,96.69 40.38,96.92 38.92,97.15 38.92,97.15 38.92,97.15 35.25,97.14 31.59,97.13 23.86,96.77 16.13,96.41 7.14,93.98 -1.83,91.56 -2.12,82.83 -2.40,74.11 0.87,66.61 4.16,59.11 7.52,50.83 10.88,42.55 14.79,33.95 18.70,25.34 20.85,16.73 23.01,8.11 14.66,7.12 6.32,6.13 3.03,5.92 -0.24,5.71 -0.92,5.60 -1.60,5.49 -2.24,5.21 -2.87,4.94 -3.42,4.52 -3.97,4.11 -4.41,3.57 -4.84,3.04 -5.13,2.41 -5.43,1.79 -5.56,1.11 -5.70,0.44 -5.67,-0.24 -5.64,-0.93 -5.45,-1.59 -5.25,-2.25 -4.90,-2.85 -4.56,-3.45 -4.08,-3.94 -3.60,-4.44 -3.02,-4.81 -2.43,-5.17 -1.78,-5.39 -1.12,-5.60 -0.43,-5.66 0.24,-5.71 0.24,-5.71 Z" pointer-events="all" transform="translate(988, 358)"/><path id="path_2526d40e-5f8e-422e-236a-3cc775ea7a4f" fill="#673ab7" stroke="transparent" stroke-linecap="round" stroke-linejoin="round" stroke-width="0" d="M 33.74,6.71 Q 33.74,6.71 30.59,6.63 27.44,6.56 19.77,6.60 12.10,6.64 12.64,15.94 13.18,25.23 14.28,32.82 15.37,40.41 16.96,48.86 18.55,57.31 19.39,65.82 20.23,74.33 28.33,75.16 36.44,75.99 37.60,77.65 38.76,79.32 39.43,77.91 40.10,76.51 41.19,75.39 42.27,74.28 43.65,73.56 45.03,72.85 46.57,72.62 48.11,72.38 49.64,72.65 51.17,72.92 52.53,73.67 53.90,74.41 54.96,75.55 56.01,76.69 56.65,78.11 57.28,79.53 57.44,81.08 57.59,82.63 57.23,84.14 56.88,85.66 56.06,86.98 55.25,88.30 54.05,89.29 52.85,90.29 51.40,90.85 49.95,91.40 48.40,91.47 46.84,91.54 45.35,91.10 43.86,90.67 42.58,89.78 41.30,88.89 40.38,87.65 39.45,86.40 38.97,84.92 38.49,83.44 38.51,81.88 38.53,80.33 39.04,78.86 39.56,77.39 40.51,76.17 41.47,74.94 42.77,74.08 44.06,73.23 45.57,72.83 47.07,72.43 48.62,72.53 50.17,72.63 51.61,73.23 53.05,73.82 54.22,74.84 55.39,75.86 56.18,77.20 56.96,78.54 57.28,80.07 57.60,81.59 57.41,83.13 57.22,84.68 57.22,84.67 57.23,84.67 45.09,90.25 32.96,95.83 24.80,96.77 16.64,97.71 10.80,91.30 4.96,84.89 4.18,77.46 3.40,70.02 2.63,61.50 1.86,52.97 0.59,45.03 -0.66,37.10 -1.75,27.29 -2.83,17.47 -3.53,8.44 -4.23,-0.58 4.09,-3.42 12.43,-6.27 20.20,-5.70 27.97,-5.13 31.11,-4.92 34.25,-4.71 34.93,-4.59 35.61,-4.48 36.25,-4.21 36.88,-3.93 37.43,-3.51 37.98,-3.10 38.41,-2.56 38.84,-2.03 39.14,-1.40 39.43,-0.78 39.56,-0.10 39.70,0.56 39.67,1.25 39.63,1.94 39.44,2.60 39.24,3.26 38.90,3.86 38.55,4.45 38.07,4.95 37.59,5.44 37.00,5.81 36.42,6.17 35.76,6.39 35.11,6.60 34.42,6.65 33.73,6.71 33.74,6.71 Z" pointer-events="all" transform="translate(1044, 352)"/><path id="path_d7ac2600-de67-47d0-124e-6a4401a5a0c8" fill="#673ab7" stroke="transparent" stroke-linecap="round" stroke-linejoin="round" stroke-width="0" d="M 0.37,-4.82 Q 0.37,-4.82 6.85,-4.17 13.34,-3.53 14.06,-3.36 14.77,-3.18 15.40,-2.79 16.02,-2.40 16.48,-1.82 16.95,-1.25 17.20,-0.56 17.46,0.12 17.48,0.85 17.51,1.59 17.29,2.29 17.08,3.00 16.65,3.60 16.23,4.20 15.63,4.63 15.03,5.06 14.33,5.28 13.63,5.50 12.89,5.48 12.16,5.47 11.47,5.22 10.77,4.97 10.20,4.51 9.62,4.05 9.22,3.43 8.82,2.81 8.64,2.10 8.46,1.38 8.52,0.65 8.58,-0.07 8.86,-0.75 9.15,-1.43 9.64,-1.98 10.13,-2.53 10.77,-2.89 11.41,-3.26 12.13,-3.40 12.85,-3.54 13.58,-3.45 14.31,-3.35 14.97,-3.03 15.63,-2.70 16.16,-2.18 16.68,-1.66 17.01,-1.01 17.34,-0.35 17.44,0.37 17.54,1.10 17.41,1.82 17.27,2.55 16.91,3.19 16.55,3.83 16.01,4.32 15.46,4.82 14.79,5.11 14.11,5.41 13.38,5.47 12.64,5.53 12.65,5.53 12.65,5.53 6.14,5.17 -0.37,4.82 -0.94,4.70 -1.51,4.59 -2.04,4.34 -2.57,4.09 -3.02,3.73 -3.47,3.36 -3.82,2.89 -4.18,2.43 -4.41,1.89 -4.64,1.36 -4.73,0.78 -4.83,0.21 -4.78,-0.36 -4.74,-0.95 -4.56,-1.50 -4.37,-2.05 -4.06,-2.55 -3.75,-3.04 -3.33,-3.45 -2.92,-3.85 -2.41,-4.15 -1.91,-4.44 -1.35,-4.60 -0.79,-4.77 -0.21,-4.79 0.37,-4.82 0.37,-4.82 Z" pointer-events="all" transform="translate(1056, 391)"/><path id="path_9468d102-214e-4b17-1d22-ef92ad6a700d" fill="#673ab7" stroke="transparent" stroke-linecap="round" stroke-linejoin="round" stroke-width="0" d="M 54,5.74 Q 54,5.74 51.42,5.82 48.85,5.91 40.84,7.01 32.83,8.11 28.96,14.89 25.09,21.66 32.84,24.59 40.59,27.52 48.10,30.13 55.60,32.75 59.81,39.55 64.02,46.35 63.75,53.81 63.47,61.28 59.12,68.51 54.77,75.74 48.73,80.09 42.69,84.45 34.56,86.06 26.43,87.67 19.04,87.27 11.65,86.86 4.43,82.84 -2.79,78.81 -6.06,71.45 -9.34,64.08 -9.69,61.33 -10.05,58.57 -10.04,56.92 -10.03,55.27 -9.49,53.72 -8.95,52.16 -7.95,50.86 -6.94,49.55 -5.57,48.64 -4.20,47.72 -2.61,47.30 -1.02,46.87 0.62,46.97 2.26,47.07 3.78,47.69 5.31,48.31 6.56,49.39 7.80,50.46 8.64,51.88 9.48,53.30 9.82,54.91 10.16,56.52 9.97,58.16 9.78,59.79 9.08,61.28 8.38,62.77 7.23,63.96 6.09,65.15 4.63,65.91 3.17,66.67 1.54,66.92 -0.07,67.17 -1.70,66.89 -3.32,66.62 -4.77,65.83 -6.22,65.05 -7.34,63.85 -8.46,62.64 -9.14,61.14 -9.82,59.64 -9.99,58.00 -10.15,56.36 -9.79,54.76 -9.42,53.15 -8.56,51.75 -7.70,50.35 -6.44,49.29 -5.17,48.23 -3.64,47.63 -2.11,47.04 -0.46,46.96 1.17,46.88 2.76,47.34 4.34,47.79 5.70,48.73 7.05,49.66 8.04,50.98 9.03,52.30 9.54,53.86 10.05,55.43 10.05,55.43 10.05,55.42 12.00,61.12 13.95,66.82 22.03,67.18 30.11,67.54 36.61,63.67 43.11,59.79 41.50,52.41 39.89,45.02 31.98,42.81 24.07,40.59 18.40,35.42 12.73,30.24 11.56,22.45 10.39,14.65 13.65,7.93 16.91,1.21 24.69,-2.02 32.48,-5.27 40.66,-5.59 48.85,-5.91 51.42,-5.82 54,-5.74 54.68,-5.65 55.37,-5.57 56.02,-5.33 56.66,-5.08 57.23,-4.69 57.80,-4.29 58.26,-3.78 58.72,-3.26 59.04,-2.64 59.36,-2.03 59.53,-1.36 59.70,-0.69 59.70,0.00 59.70,0.69 59.53,1.36 59.36,2.03 59.04,2.64 58.72,3.26 58.26,3.78 57.80,4.29 57.23,4.69 56.66,5.08 56.02,5.33 55.37,5.57 54.68,5.65 53.99,5.74 53.99,5.74 Z" pointer-events="all" transform="translate(1105, 346)"/><path id="path_243a10d9-2154-4eb5-1dc4-4a1e19f81051" fill="#ffc107" stroke="transparent" stroke-linecap="round" stroke-linejoin="round" stroke-width="0" d="M 11.63,1.35 Q 11.63,1.35 10.81,4.93 10.00,8.52 8.88,17.61 7.76,26.70 7.47,34.18 7.18,41.67 7.26,50.67 7.34,59.68 7.57,67.22 7.81,74.77 7.82,77.39 7.83,80.02 7.62,81.27 7.41,82.52 6.81,83.63 6.22,84.75 5.30,85.62 4.37,86.49 3.22,87.02 2.07,87.55 0.81,87.68 -0.44,87.82 -1.68,87.54 -2.91,87.26 -4.00,86.61 -5.08,85.95 -5.90,84.98 -6.72,84.01 -7.18,82.84 -7.65,81.66 -7.71,80.39 -7.78,79.13 -7.44,77.91 -7.09,76.69 -6.38,75.64 -5.67,74.59 -4.66,73.83 -3.64,73.06 -2.44,72.66 -1.24,72.26 0.02,72.27 1.28,72.27 2.48,72.68 3.68,73.09 4.69,73.85 5.70,74.62 6.40,75.68 7.11,76.73 7.45,77.95 7.78,79.17 7.71,80.44 7.64,81.70 7.17,82.88 6.69,84.05 5.87,85.02 5.05,85.98 3.96,86.63 2.87,87.28 1.63,87.55 0.40,87.82 -0.85,87.68 -2.11,87.54 -3.26,87.00 -4.41,86.47 -5.33,85.59 -6.24,84.72 -6.83,83.60 -7.43,82.47 -7.63,81.22 -7.83,79.97 -7.83,79.97 -7.83,79.97 -7.72,75.50 -7.61,71.02 -7.29,63.57 -6.97,56.11 -6.51,48.57 -6.05,41.03 -5.34,33.21 -4.64,25.40 -3.04,15.59 -1.43,5.77 -0.53,2.21 0.36,-1.35 0.61,-2.00 0.85,-2.66 1.24,-3.23 1.64,-3.81 2.16,-4.28 2.68,-4.74 3.29,-5.07 3.91,-5.40 4.58,-5.57 5.26,-5.74 5.96,-5.75 6.66,-5.75 7.34,-5.59 8.02,-5.42 8.64,-5.10 9.26,-4.78 9.78,-4.32 10.31,-3.86 10.71,-3.29 11.11,-2.72 11.36,-2.07 11.61,-1.42 11.70,-0.72 11.79,-0.03 11.71,0.65 11.63,1.35 11.63,1.35 Z" pointer-events="all" transform="translate(1194, 339)"/><path id="path_5f24e382-3027-4346-0f3b-ff8059345246" fill="#ffc107" stroke="transparent" stroke-linecap="round" stroke-linejoin="round" stroke-width="0" d="M 2,-5.19 Q 2,-5.19 2.82,-5.06 3.65,-4.92 4.40,-4.53 5.14,-4.13 5.72,-3.52 6.30,-2.91 6.65,-2.15 7.00,-1.39 7.09,-0.55 7.19,0.28 7.00,1.10 6.82,1.92 6.39,2.64 5.96,3.36 5.32,3.90 4.67,4.45 3.89,4.76 3.11,5.07 2.27,5.12 1.43,5.16 0.62,4.94 -0.18,4.71 -0.87,4.24 -1.57,3.77 -2.08,3.10 -2.59,2.43 -2.86,1.63 -3.12,0.84 -3.12,-0.00 -3.12,-0.84 -2.86,-1.63 -2.59,-2.43 -2.08,-3.10 -1.57,-3.77 -0.87,-4.24 -0.18,-4.71 0.62,-4.94 1.43,-5.16 2.27,-5.12 3.11,-5.07 3.89,-4.76 4.68,-4.45 5.32,-3.90 5.96,-3.36 6.39,-2.64 6.82,-1.92 7.00,-1.10 7.19,-0.28 7.09,0.55 7.00,1.39 6.65,2.15 6.30,2.91 5.72,3.52 5.14,4.13 4.40,4.53 3.65,4.92 2.82,5.06 1.99,5.19 1.99,5.19 2,5.19 1.34,5.36 0.69,5.52 0.02,5.52 -0.64,5.53 -1.29,5.37 -1.95,5.21 -2.54,4.90 -3.14,4.59 -3.64,4.15 -4.15,3.71 -4.53,3.16 -4.91,2.61 -5.16,1.98 -5.40,1.35 -5.48,0.69 -5.56,0.02 -5.49,-0.64 -5.41,-1.30 -5.17,-1.93 -4.94,-2.56 -4.56,-3.11 -4.18,-3.67 -3.68,-4.12 -3.18,-4.56 -2.59,-4.88 -1.99,-5.19 0.00,-5.19 Z" pointer-events="all" transform="translate(1184, 443)"/><path id="path_b6a0c09b-535e-4df9-3efb-a4d44e4ae111" fill="#efefef" stroke="transparent" stroke-linecap="round" stroke-linejoin="round" stroke-width="0" d="M 4.53,-2.53 Q 4.53,-2.53 5.00,-1.87 5.47,-1.22 5.71,-0.44 5.95,0.32 5.93,1.13 5.91,1.94 5.63,2.70 5.35,3.46 4.84,4.09 4.33,4.72 3.65,5.15 2.97,5.59 2.19,5.78 1.40,5.98 0.59,5.91 -0.20,5.85 -0.95,5.53 -1.69,5.21 -2.29,4.67 -2.89,4.13 -3.29,3.42 -3.69,2.72 -3.84,1.92 -3.99,1.13 -3.88,0.33 -3.77,-0.46 -3.42,-1.19 -3.06,-1.91 -2.48,-2.48 -1.91,-3.06 -1.19,-3.42 -0.46,-3.78 0.33,-3.88 1.13,-3.99 1.93,-3.84 2.72,-3.69 3.42,-3.29 4.13,-2.89 4.67,-2.29 5.21,-1.69 5.53,-0.94 5.85,-0.20 5.91,0.60 5.98,1.40 5.78,2.19 5.59,2.97 5.15,3.65 4.72,4.33 4.09,4.84 3.45,5.35 2.70,5.63 1.94,5.91 1.13,5.93 0.32,5.95 -0.44,5.71 -1.22,5.47 -1.87,5.00 -2.53,4.53 -2.53,4.53 -2.53,4.53 -3.04,4.16 -3.54,3.79 -3.95,3.31 -4.35,2.83 -4.62,2.27 -4.90,1.71 -5.03,1.10 -5.17,0.48 -5.15,-0.13 -5.13,-0.76 -4.97,-1.36 -4.80,-1.97 -4.50,-2.51 -4.19,-3.06 -3.76,-3.52 -3.34,-3.97 -2.81,-4.32 -2.29,-4.66 -1.70,-4.86 -1.10,-5.07 -0.48,-5.13 0.13,-5.19 0.75,-5.10 1.37,-5.01 1.95,-4.77 2.53,-4.53 3.53,-3.53 Z" pointer-events="all" transform="translate(1038, 185)"/><path id="path_4424c600-7cf4-46cc-3543-027a1439e9df" fill="#efefef" stroke="transparent" stroke-linecap="round" stroke-linejoin="round" stroke-width="0" d="M 4.53,-2.53 Q 4.53,-2.53 5.00,-1.87 5.47,-1.22 5.71,-0.44 5.95,0.32 5.93,1.13 5.91,1.94 5.63,2.70 5.35,3.46 4.84,4.09 4.33,4.72 3.65,5.15 2.97,5.59 2.19,5.78 1.40,5.98 0.59,5.91 -0.20,5.85 -0.95,5.53 -1.69,5.21 -2.29,4.67 -2.89,4.13 -3.29,3.42 -3.69,2.72 -3.84,1.92 -3.99,1.13 -3.88,0.33 -3.77,-0.46 -3.42,-1.19 -3.06,-1.91 -2.48,-2.48 -1.91,-3.06 -1.19,-3.42 -0.46,-3.78 0.33,-3.88 1.13,-3.99 1.93,-3.84 2.72,-3.69 3.42,-3.29 4.13,-2.89 4.67,-2.29 5.21,-1.69 5.53,-0.94 5.85,-0.20 5.91,0.60 5.98,1.40 5.78,2.19 5.59,2.97 5.15,3.65 4.72,4.33 4.09,4.84 3.45,5.35 2.70,5.63 1.94,5.91 1.13,5.93 0.32,5.95 -0.44,5.71 -1.22,5.47 -1.87,5.00 -2.53,4.53 -2.53,4.53 -2.53,4.53 -3.04,4.16 -3.54,3.79 -3.95,3.31 -4.35,2.83 -4.62,2.27 -4.90,1.71 -5.03,1.10 -5.17,0.48 -5.15,-0.13 -5.13,-0.76 -4.97,-1.36 -4.80,-1.97 -4.50,-2.51 -4.19,-3.06 -3.76,-3.52 -3.34,-3.97 -2.81,-4.32 -2.29,-4.66 -1.70,-4.86 -1.10,-5.07 -0.48,-5.13 0.13,-5.19 0.75,-5.10 1.37,-5.01 1.95,-4.77 2.53,-4.53 3.53,-3.53 Z" pointer-events="all" transform="translate(1083, 184)"/><path id="path_0b0a6ecc-906a-46dc-1dfa-9886f65c3480" fill="#efefef" stroke="transparent" stroke-linecap="round" stroke-linejoin="round" stroke-width="0" d="M 1.68,-4.52 Q 1.68,-4.52 6.68,-2.65 11.68,-0.77 22.62,2.92 33.57,6.62 46.09,8.71 58.62,10.81 67.44,11.07 76.26,11.33 85.94,8.81 95.62,6.28 103.69,2.04 111.77,-2.20 112.50,-2.45 113.23,-2.69 114.00,-2.69 114.77,-2.69 115.50,-2.44 116.23,-2.20 116.84,-1.73 117.46,-1.26 117.89,-0.62 118.32,0.00 118.52,0.75 118.73,1.49 118.69,2.26 118.64,3.03 118.36,3.74 118.07,4.46 117.57,5.04 117.07,5.63 116.41,6.02 115.75,6.42 115.00,6.58 114.24,6.75 113.48,6.66 112.71,6.58 112.02,6.25 111.32,5.93 110.76,5.40 110.20,4.87 109.84,4.19 109.48,3.51 109.36,2.75 109.23,1.99 109.36,1.23 109.49,0.47 109.85,-0.20 110.21,-0.88 110.77,-1.41 111.33,-1.94 112.03,-2.26 112.73,-2.58 113.50,-2.67 114.26,-2.75 115.01,-2.58 115.76,-2.41 116.42,-2.02 117.08,-1.62 117.58,-1.03 118.08,-0.44 118.36,0.26 118.65,0.98 118.69,1.75 118.73,2.52 118.52,3.26 118.31,4.00 117.88,4.64 117.44,5.28 116.83,5.74 116.22,6.20 116.22,6.20 116.22,6.20 104.34,11.99 92.45,17.77 84.52,18.99 76.58,20.22 67.06,19.62 57.53,19.03 44.33,17.21 31.13,15.38 19.73,11.80 8.33,8.21 3.32,6.37 -1.68,4.52 -2.19,4.26 -2.71,3.99 -3.15,3.61 -3.59,3.22 -3.92,2.75 -4.26,2.27 -4.47,1.73 -4.68,1.18 -4.75,0.61 -4.83,0.03 -4.76,-0.54 -4.69,-1.12 -4.49,-1.67 -4.29,-2.21 -3.96,-2.69 -3.63,-3.17 -3.20,-3.56 -2.77,-3.95 -2.25,-4.23 -1.74,-4.50 -1.17,-4.64 -0.61,-4.79 -0.03,-4.79 0.54,-4.79 1.11,-4.66 1.68,-4.52 1.68,-4.52 Z" pointer-events="all" transform="translate(1018, 218)"/><path id="path_4428aa6b-08c2-4859-03d5-d894ad2a9446" fill="#000" stroke="transparent" stroke-linecap="round" stroke-linejoin="round" stroke-width="0" d="M 4.53,-2.53 Q 4.53,-2.53 5.00,-1.87 5.47,-1.22 5.71,-0.44 5.95,0.32 5.93,1.13 5.91,1.94 5.63,2.70 5.35,3.46 4.84,4.09 4.33,4.72 3.65,5.15 2.97,5.59 2.19,5.78 1.40,5.98 0.59,5.91 -0.20,5.85 -0.95,5.53 -1.69,5.21 -2.29,4.67 -2.89,4.13 -3.29,3.42 -3.69,2.72 -3.84,1.92 -3.99,1.13 -3.88,0.33 -3.77,-0.46 -3.42,-1.19 -3.06,-1.91 -2.48,-2.48 -1.91,-3.06 -1.19,-3.42 -0.46,-3.78 0.33,-3.88 1.13,-3.99 1.93,-3.84 2.72,-3.69 3.42,-3.29 4.13,-2.89 4.67,-2.29 5.21,-1.69 5.53,-0.94 5.85,-0.20 5.91,0.60 5.98,1.40 5.78,2.19 5.59,2.97 5.15,3.65 4.72,4.33 4.09,4.84 3.45,5.35 2.70,5.63 1.94,5.91 1.13,5.93 0.32,5.95 -0.44,5.71 -1.22,5.47 -1.87,5.00 -2.53,4.53 -2.53,4.53 -2.53,4.53 -3.04,4.16 -3.54,3.79 -3.95,3.31 -4.35,2.83 -4.62,2.27 -4.90,1.71 -5.03,1.10 -5.17,0.48 -5.15,-0.13 -5.13,-0.76 -4.97,-1.36 -4.80,-1.97 -4.50,-2.51 -4.19,-3.06 -3.76,-3.52 -3.34,-3.97 -2.81,-4.32 -2.29,-4.66 -1.70,-4.86 -1.10,-5.07 -0.48,-5.13 0.13,-5.19 0.75,-5.10 1.37,-5.01 1.95,-4.77 2.53,-4.53 3.53,-3.53 Z" pointer-events="all" transform="translate(1035, 185)"/><path id="path_b9ee0d45-a0ac-46db-2c9f-66de843fc328" fill="#000" stroke="transparent" stroke-linecap="round" stroke-linejoin="round" stroke-width="0" d="M 4.53,-2.53 Q 4.53,-2.53 5.00,-1.87 5.47,-1.22 5.71,-0.44 5.95,0.32 5.93,1.13 5.91,1.94 5.63,2.70 5.35,3.46 4.84,4.09 4.33,4.72 3.65,5.15 2.97,5.59 2.19,5.78 1.40,5.98 0.59,5.91 -0.20,5.85 -0.95,5.53 -1.69,5.21 -2.29,4.67 -2.89,4.13 -3.29,3.42 -3.69,2.72 -3.84,1.92 -3.99,1.13 -3.88,0.33 -3.77,-0.46 -3.42,-1.19 -3.06,-1.91 -2.48,-2.48 -1.91,-3.06 -1.19,-3.42 -0.46,-3.78 0.33,-3.88 1.13,-3.99 1.93,-3.84 2.72,-3.69 3.42,-3.29 4.13,-2.89 4.67,-2.29 5.21,-1.69 5.53,-0.94 5.85,-0.20 5.91,0.60 5.98,1.40 5.78,2.19 5.59,2.97 5.15,3.65 4.72,4.33 4.09,4.84 3.45,5.35 2.70,5.63 1.94,5.91 1.13,5.93 0.32,5.95 -0.44,5.71 -1.22,5.47 -1.87,5.00 -2.53,4.53 -2.53,4.53 -2.53,4.53 -3.04,4.16 -3.54,3.79 -3.95,3.31 -4.35,2.83 -4.62,2.27 -4.90,1.71 -5.03,1.10 -5.17,0.48 -5.15,-0.13 -5.13,-0.76 -4.97,-1.36 -4.80,-1.97 -4.50,-2.51 -4.19,-3.06 -3.76,-3.52 -3.34,-3.97 -2.81,-4.32 -2.29,-4.66 -1.70,-4.86 -1.10,-5.07 -0.48,-5.13 0.13,-5.19 0.75,-5.10 1.37,-5.01 1.95,-4.77 2.53,-4.53 3.53,-3.53 Z" pointer-events="all" transform="translate(1083, 182)"/><path id="path_b765b516-dc11-4c54-3d21-8a577533ab53" fill="#000" stroke="transparent" stroke-linecap="round" stroke-linejoin="round" stroke-width="0" d="M 3.07,-4.92 Q 3.07,-4.92 5.40,-3.55 7.73,-2.19 15.61,1.11 23.50,4.42 31.45,6.10 39.40,7.78 47.85,9.14 56.29,10.50 64.57,10.54 72.84,10.58 80.66,10.17 88.48,9.76 95.85,7.00 103.23,4.24 109.17,1.50 115.11,-1.23 116.53,-1.63 117.95,-2.04 119.42,-1.97 120.89,-1.90 122.26,-1.36 123.63,-0.83 124.76,0.11 125.89,1.05 126.66,2.31 127.43,3.57 127.76,5.00 128.08,6.44 127.93,7.90 127.78,9.37 127.17,10.71 126.57,12.05 125.56,13.13 124.55,14.20 123.26,14.90 121.96,15.60 120.51,15.85 119.06,16.10 117.60,15.87 116.15,15.64 114.84,14.96 113.54,14.28 112.52,13.22 111.50,12.16 110.87,10.82 110.24,9.49 110.07,8.03 109.90,6.56 110.21,5.12 110.51,3.68 111.27,2.42 112.02,1.15 113.13,0.19 114.25,-0.76 115.61,-1.32 116.98,-1.87 118.45,-1.96 119.92,-2.05 121.34,-1.67 122.76,-1.28 123.99,-0.47 125.21,0.34 126.11,1.51 127.01,2.68 127.49,4.07 127.97,5.46 127.98,6.93 127.99,8.41 127.53,9.81 127.07,11.21 126.18,12.38 125.30,13.56 124.09,14.40 122.87,15.23 122.87,15.23 122.88,15.23 116.07,18.44 109.26,21.66 102.03,24.08 94.81,26.51 87.39,26.99 79.97,27.48 71.44,27.14 62.91,26.80 54.26,25.86 45.61,24.92 38.29,23.04 30.97,21.16 23.20,18.36 15.42,15.55 8.41,11.73 1.41,7.91 -0.82,6.41 -3.07,4.92 -3.61,4.48 -4.16,4.04 -4.58,3.48 -5.00,2.92 -5.28,2.28 -5.56,1.64 -5.68,0.95 -5.79,0.26 -5.74,-0.43 -5.69,-1.13 -5.47,-1.79 -5.25,-2.46 -4.88,-3.05 -4.51,-3.64 -4.01,-4.13 -3.51,-4.62 -2.90,-4.97 -2.30,-5.32 -1.63,-5.52 -0.96,-5.72 -0.26,-5.75 0.43,-5.78 1.12,-5.64 1.80,-5.51 2.44,-5.21 3.07,-4.92 3.07,-4.92 Z" pointer-events="all" transform="translate(1014, 215)"/></svg>